<?xml version="1.0" encoding="utf-8"?>
<!-- Generator: Adobe Illustrator 24.0.0, SVG Export Plug-In . SVG Version: 6.00 Build 0)  -->
<svg version="1.1" id="Layer_1" xmlns="http://www.w3.org/2000/svg" xmlns:xlink="http://www.w3.org/1999/xlink" x="0px" y="0px"
	 viewBox="0 0 850.39 850.39" style="enable-background:new 0 0 850.39 850.39;" xml:space="preserve">
<style type="text/css">
	.st0{fill:#E30D0D;}
	.st1{fill:#FF4747;}
	.st2{fill:#FFA621;}
	.st3{fill:#FFD22E;}
	.st4{fill:#999999;}
	.st5{fill:#666666;}
	.st6{fill-rule:evenodd;clip-rule:evenodd;fill:#1A1A1A;}
	.st7{fill:#1A1A1A;}
	.st8{fill:#FFE688;}
	.st9{fill-rule:evenodd;clip-rule:evenodd;fill:#666666;}
	.st10{fill:#FFFFFF;}
	.st11{fill:#E6E6E6;}
	.st12{fill-rule:evenodd;clip-rule:evenodd;fill:#FFFFFF;}
	.st13{fill:#FF7272;}
</style>
<g>
	<path class="st0" d="M552.32,73.33c-12.27-12.66-29.61-19.53-48.86-19.53c-19.25,0-36.6,6.87-48.86,19.53
		c-11.5,11.87-18.56,28.86-18.56,50.11c0,22.71,8.05,45.79,20.98,62.85c12.1,15.97,28.47,26.63,46.44,26.63
		c17.97,0,34.34-10.65,46.44-26.63c12.93-17.06,20.98-40.14,20.98-62.85C570.88,102.19,563.82,85.2,552.32,73.33L552.32,73.33z"/>
	<path class="st1" d="M547.57,74.02c-11.07-10.86-26.73-16.76-44.1-16.76c-17.37,0-33.03,5.89-44.1,16.76
		c-10.38,10.19-16.75,24.77-16.75,43c0,19.49,7.27,39.29,18.93,53.93c10.93,13.71,25.7,22.85,41.92,22.85
		c16.22,0,31-9.14,41.92-22.85c11.67-14.64,18.94-34.45,18.94-53.93C564.32,98.79,557.95,84.2,547.57,74.02L547.57,74.02z"/>
	<path class="st2" d="M620.26,204.46c0.04,0.02,0.09,0.04,0.13,0.06c1.11,0.5,2.24,0.95,3.4,1.37l0.01,0
		c1.18,0.42,2.36,0.78,3.56,1.1l0.04,0.01l0.01,0c16.51,4.36,34.62-0.76,50.57-11.69c17.24-11.82,31.91-30.41,39.28-51.2l0-0.01
		c7.34-20.69,6.06-39.63-1.45-54.94c-7.5-15.3-21.24-27-38.81-33.24c-18.14-6.43-36.79-5.76-52.58,2.07
		c-14.81,7.34-27.14,21-34.24,41.02c-7.59,21.41-7.72,45.85-1.24,66.25C594.56,183,605.2,197.65,620.26,204.46L620.26,204.46z"/>
	<path class="st3" d="M627.37,190.65c0.04,0.02,0.08,0.03,0.12,0.05c0.99,0.44,1.99,0.85,3.02,1.21l0,0
		c1.05,0.37,2.1,0.69,3.16,0.98l0.03,0.01l0.01,0c14.67,3.87,30.77-0.67,44.94-10.39c15.32-10.5,28.36-27.02,34.91-45.51l0-0.01
		c6.52-18.39,5.38-35.22-1.29-48.82c-6.67-13.59-18.88-24-34.49-29.54c-16.12-5.72-32.69-5.12-46.73,1.84
		c-13.16,6.53-24.12,18.66-30.43,36.45c-6.75,19.02-6.86,40.75-1.1,58.88C604.53,171.58,613.99,184.6,627.37,190.65L627.37,190.65z"
		/>
	<path class="st2" d="M619.94,207.78l-6.47,5.52l6.81,2.42l0.04,0.01l6.82,2.42l-1.54-8.36c-0.92-0.26-1.84-0.56-2.75-0.88
		c-0.08-0.02-0.15-0.05-0.22-0.08C621.72,208.5,620.82,208.15,619.94,207.78L619.94,207.78z"/>
	<path class="st0" d="M500.46,215.99l-4.25,7.36h14.51l-4.25-7.36c-1,0.06-2,0.09-3,0.09C502.46,216.08,501.46,216.05,500.46,215.99
		L500.46,215.99z"/>
	<path class="st4" d="M445.46,421.78c0.49,0.16,1.5,0.31,2.69,0.24c1.28-0.08,2.67-0.45,3.52-1.44c0.18-0.21,0.34-0.46,0.47-0.73
		c0.38-0.79,1.32-1.12,2.11-0.74c0.79,0.38,1.12,1.32,0.74,2.11c-0.26,0.54-0.57,1.01-0.92,1.42c-1.52,1.78-3.74,2.43-5.74,2.55
		c-0.72,0.04-1.42,0.01-2.06-0.06c-0.01,0.64-0.07,1.35-0.2,2.05c-0.37,1.97-1.29,4.09-3.25,5.37c-0.44,0.29-0.95,0.54-1.53,0.73
		c-0.83,0.27-1.72-0.18-2-1c-0.27-0.83,0.18-1.72,1-2c0.28-0.09,0.54-0.22,0.78-0.38c1.09-0.72,1.63-2.05,1.87-3.31
		c0.22-1.16,0.19-2.19,0.1-2.7c-1.32-1.38-5.36-6.05-7.18-8.15c-3.37,1.72-8.39,1.23-8.41,1.23c-0.87-0.09-1.5-0.87-1.41-1.73
		c0.09-0.87,0.87-1.5,1.74-1.41c0.01,0,5.21,0.52,7.33-1.35c2.12-1.87,2.26-7.09,2.26-7.1c0.02-0.87,0.74-1.56,1.62-1.54
		c0.87,0.02,1.56,0.74,1.54,1.62c0,0.02-0.14,5.06-2.27,8.19C440.14,415.71,444.26,420.33,445.46,421.78L445.46,421.78z"/>
	<path class="st4" d="M469.06,522.6c-9.11,11.95-15.4,15.68-32.24,25.65l-4.32,2.56c-6.08,3.61-7.87,9.14-6.76,14.69
		c0.65,3.28,2.3,6.59,4.65,9.54c2.38,2.98,5.48,5.59,9.03,7.46c8.09,4.26,18.53,4.57,27.94-3.63c6.44-5.61,12.16-13.78,16.96-22.26
		c4.37-7.72,7.96-15.68,10.62-22.21c-10.08-0.18-17.5-3.51-22.89-8.56C470.97,524.82,469.98,523.74,469.06,522.6L469.06,522.6z"/>
	<path class="st5" d="M469.06,522.6c-2.01,2.64-3.89,4.88-5.77,6.88c4.87,4.38,10.68,8.76,10.68,13.15c0,5.95-2.62,28.32-23.8,28.79
		c-21.15,0.48-22.25-16.53-22.25-16.57c-2.34,3.15-2.92,6.9-2.17,10.65c0.65,3.28,2.3,6.59,4.65,9.54c2.38,2.98,5.48,5.59,9.03,7.46
		c8.09,4.26,18.53,4.57,27.94-3.63c6.44-5.61,12.16-13.78,16.96-22.26c4.37-7.72,7.96-15.68,10.62-22.21
		c-10.08-0.18-17.5-3.51-22.89-8.56C470.97,524.82,469.98,523.74,469.06,522.6L469.06,522.6z"/>
	<path class="st5" d="M385.2,395.48c-3.32,1.64-5.56,4.35-6.91,7.61c-1.92,4.63-2.1,10.35-1.09,15.72
		c1.16,6.17,3.82,13.07,6.67,20.46c5.63,14.6,12,31.12,9.56,48.61c0.73-0.2,1.45-0.41,2.17-0.64c0.09-0.26,0.19-0.53,0.29-0.81
		c0.16-0.47,0.33-0.98,0.51-1.53c7.7-24.49,1.3-42.16-3.94-56.63c-1.75-4.84-3.38-9.33-4.35-13.69c-0.51-2.3-0.7-4.3-0.62-6.04
		c0.07-1.69,0.38-3.13,0.87-4.36C387.15,401.3,386.05,398.4,385.2,395.48L385.2,395.48z"/>
	<path class="st4" d="M377.02,515.7L377.02,515.7c0.98-1.17,1.9-2.32,2.75-3.45c0.71-0.95,1.38-1.91,2.01-2.86
		c-0.51-2.43-0.64-4.89-0.38-7.24c0.62-5.54,3.41-10.45,8.63-13.02c3.01-17.31-3.43-34-9.1-48.71c-2.91-7.54-5.62-14.58-6.83-21.02
		c-1.11-5.92-0.9-12.29,1.27-17.52c1.71-4.13,4.63-7.55,9.03-9.52c-0.55-2.51-0.87-5.04-0.85-7.6c-5.49,0.21-12.22,2.85-17.51,8.07
		c-4.57,4.52-8.03,10.99-8.62,19.53c-0.51,7.47,0.88,15.59,2.43,24.65c3.29,19.24,7.3,42.62-4.1,73.82
		c-2.98,8.16-3.77,13.46-3.02,16.48c0.35,1.42,1.08,2.21,2.08,2.46c1.24,0.32,2.96,0,5-0.83
		C364.7,526.92,370.97,522.08,377.02,515.7L377.02,515.7z"/>
	<path class="st5" d="M461.75,365.56c-0.24-0.45-0.47-0.88-0.71-1.32c-0.33-0.59-0.68-1.19-1.07-1.79
		c-2.68-4.17-6.32-7.69-10.44-9.51c-3.39-1.49-7.13-1.81-10.95-0.35c2.86,1.42,5.68,3.05,8.51,4.68c2.31,1.33,4.62,2.66,7.03,3.91
		C456.84,362.6,459.39,364.06,461.75,365.56L461.75,365.56z"/>
	<path class="st5" d="M465.55,372.08c-0.41-0.1-0.77-0.37-0.99-0.75c-3.44-2.56-7.42-5.01-11.9-7.33c-2.37-1.23-4.76-2.61-7.15-3.98
		c-3.51-2.02-7.01-4.03-10.59-5.61c-0.6,0.11-1.23-0.14-1.6-0.67c-9.77-3.9-20.31-4.19-33.61,7.54
		c-12.81,11.29-14.24,21.44-11.96,31.27c0.04,0.07,0.07,0.14,0.1,0.22c0.06,0.18,0.09,0.37,0.09,0.55
		c0.85,3.37,2.11,6.71,3.48,10.05c0.08,0.14,0.15,0.29,0.18,0.45c0.38,0.91,0.76,1.83,1.14,2.74c1.06,2.52,2.12,5.05,3.05,7.59
		c3.01,8.18,6.57,14.91,10.67,20.04c4.41,5.52,9.47,9.19,15.17,10.82c5.7,1.63,12.11,1.23,19.23-1.4c0.66-0.24,1.32-0.5,1.99-0.78
		c0.33-0.43,0.87-0.66,1.4-0.61c5.36-2.42,11.08-6.03,17.18-10.89c5.06-4.91,9.05-9.65,12.05-14.21c0.03-0.05,0.06-0.1,0.09-0.15
		c1.01-1.54,1.9-3.06,2.68-4.57c3.49-6.73,4.7-13.04,3.79-18.9c-0.9-5.86-3.91-11.33-8.83-16.4
		C469.54,375.38,467.65,373.7,465.55,372.08L465.55,372.08z"/>
	<path class="st4" d="M452.67,364c-2.37-1.23-4.76-2.61-7.15-3.98c-12.15-6.99-23.69-12.68-37.67-4.68
		c-1.74,1.16-3.54,2.54-5.39,4.17c-11.86,10.46-13.19,19.85-11.08,28.96c0.03,0.07,0.06,0.13,0.09,0.2
		c0.06,0.17,0.08,0.34,0.08,0.51c0.79,3.13,1.95,6.22,3.22,9.31c0.08,0.13,0.14,0.27,0.17,0.41c0.35,0.85,0.7,1.69,1.06,2.54
		c0.98,2.33,1.96,4.68,2.83,7.03c2.79,7.58,6.08,13.81,9.88,18.56c4.09,5.12,8.77,8.52,14.05,10.02c5.28,1.51,11.21,1.13,17.8-1.29
		c0.61-0.23,1.23-0.47,1.85-0.73c0.31-0.4,0.8-0.61,1.29-0.56c4.96-2.24,10.26-5.58,15.91-10.09c4.68-4.55,8.39-8.94,11.16-13.16
		c0.03-0.05,0.06-0.09,0.09-0.13c0.93-1.43,1.76-2.84,2.48-4.23c3.24-6.24,4.35-12.08,3.51-17.51c-0.65-4.24-2.5-8.26-5.45-12.06
		l-0.19-0.2C466.22,371.96,458.88,367.22,452.67,364L452.67,364z"/>
	<path class="st4" d="M482.52,404.93c0.59,1.07,1.2,2.14,1.84,3.21c0.42,0.71,0.87,1.43,1.33,2.15c6.2-3.79,13.99-9.28,21.01-16.4
		c-8.89-9.46-15.03-19.11-20.55-27.77c-4.93-7.75-9.36-14.69-14.76-19.89c-3.05-2.93-6.32-4.98-9.64-6.3
		c-5.78-2.3-11.75-2.41-17.06-1.14c-5.3,1.27-9.92,3.91-13.02,7.13c-0.94,0.98-1.74,2.01-2.36,3.06c1.87,0.49,3.71,1.14,5.52,1.9
		l0.17-0.1c5.49-3.04,10.94-2.87,15.79-0.74c4.72,2.08,8.84,6.04,11.83,10.7c0.4,0.62,0.79,1.28,1.17,1.96
		c0.65,1.18,1.27,2.37,1.86,3.55c0.5,1.01,0.98,2.02,1.44,3.02c2.37,1.81,4.5,3.68,6.37,5.61c5.4,5.56,8.7,11.61,9.7,18.14
		C483.76,396.85,483.56,400.82,482.52,404.93L482.52,404.93z"/>
	<path class="st5" d="M482.52,404.93c0.59,1.07,1.2,2.14,1.84,3.21c0.42,0.71,0.87,1.43,1.33,2.15c6.2-3.79,13.99-9.28,21.01-16.4
		c-0.54-0.58-1.07-1.15-1.59-1.73c-17.49,9.11-26.25-15.04-33.27-27.8c-8.45-15.35-17.97-16.66-28.55-19.63
		c-2.56-0.72-4.46-1.84-5.86-3.13c-2.23,1.23-4.17,2.7-5.73,4.32c-0.94,0.98-1.74,2.01-2.36,3.06c1.87,0.49,3.71,1.14,5.52,1.9
		l0.17-0.1c5.49-3.04,10.94-2.87,15.79-0.74c4.72,2.08,8.84,6.04,11.83,10.7c0.4,0.62,0.79,1.28,1.17,1.96
		c0.65,1.18,1.27,2.37,1.86,3.55c0.5,1.01,0.98,2.02,1.44,3.02c2.37,1.81,4.5,3.68,6.37,5.61c5.4,5.56,8.7,11.61,9.7,18.14
		C483.76,396.85,483.56,400.82,482.52,404.93L482.52,404.93z"/>
	<path class="st4" d="M482.96,411.91c-0.44-0.7-0.88-1.42-1.32-2.15l-0.42-0.72c-0.6,1.58-1.32,3.18-2.16,4.81l-0.16,0.3
		C480.09,413.53,481.45,412.78,482.96,411.91L482.96,411.91z"/>
	<path class="st4" d="M526.3,435.96l0.05,0.01c7.4,0.54,14.18,0.17,19.13-1.04c2.85-0.7,5.01-1.66,6.21-2.86
		c0.93-0.92,1.19-2.06,0.61-3.4c-1.21-2.79-5.38-6.32-13.52-10.6c-0.79-0.42-1.56-0.83-2.29-1.23c-0.4-0.22-0.85-0.47-1.34-0.75
		c-7.16,6.16-15.48,11.7-24.78,15.68c1.7,0.72,3.49,1.36,5.36,1.94l0.13,0.03C519.08,434.7,522.55,435.46,526.3,435.96L526.3,435.96
		z"/>
	<path class="st5" d="M526.3,435.96l0.05,0.01c7.4,0.54,14.18,0.17,19.13-1.04c2.85-0.7,5.01-1.66,6.21-2.86
		c0.93-0.92,1.19-2.06,0.61-3.4c-0.07-0.15-0.14-0.31-0.22-0.46c-5.15,4.18-17.73,3.86-17.43-0.66c0.14-2.11,2.2-5.67,4.64-9.22
		l-0.5-0.27c-0.79-0.42-1.56-0.83-2.29-1.23c-0.4-0.22-0.85-0.47-1.34-0.75c-7.16,6.16-15.48,11.7-24.78,15.68
		c1.7,0.72,3.49,1.36,5.36,1.94l0.13,0.03C519.08,434.7,522.55,435.46,526.3,435.96L526.3,435.96z"/>
	<path class="st5" d="M541.44,489.07c5.6-0.45,8.92-2.55,10.61-5.36c0.98-1.63,1.42-3.51,1.46-5.46c0.04-2.02-0.36-4.1-1.07-6.06
		c-1.62-4.46-4.79-8.15-8.01-8.61c-2.15-0.31-4.08,0.11-5.75,0.9c-1.86,0.89-3.43,2.25-4.65,3.64c1.62,2.62,2.97,5.23,3.95,7.77
		c1.18,3.05,2.22,6.47,2.93,10.07C541.12,486.99,541.29,488.02,541.44,489.07L541.44,489.07z"/>
	<path class="st4" d="M537.37,353.01l0.13-0.16c0.98-1.21,2.15-2.23,3.5-3c-1.32-0.01-2.61,0.12-3.84,0.38
		c-0.33,0.07-0.66,0.15-0.98,0.24C536.57,351.33,536.97,352.17,537.37,353.01L537.37,353.01z"/>
	<path class="st4" d="M547.5,384.9c-2.21-0.8-4.3-2.16-6.15-3.9c-2.88-2.71-5.21-6.37-6.53-10.29c-1.28-3.8-1.37-8.01-0.37-11.72
		c0.25-0.95,0.58-1.88,0.98-2.75c-0.74-1.51-1.46-3.02-2.17-4.54c-2.87,1.64-4.93,4.4-5.4,8.36c-3.17,26.37-28.19,48.26-51.95,59.11
		c-3.1,4.66-7.19,9.48-12.3,14.44c-0.07,0.06-0.13,0.12-0.21,0.17c-6.48,5.17-12.58,8.98-18.29,11.51
		c-3.58,6.92-10.92,19.18-22.4,29.56c-6.9,6.24-15.29,11.8-25.25,15.12c-0.11,0.05-0.22,0.09-0.33,0.11
		c-1.03,0.34-2.08,0.65-3.15,0.94c-0.55,0.15-1.07,0.32-1.57,0.52c-0.21,0.17-0.47,0.29-0.75,0.33c-4.3,2.04-6.6,6.07-7.11,10.63
		c-0.24,2.12-0.09,4.35,0.4,6.56c0.07,0.16,0.11,0.33,0.12,0.5c0.05,0.22,0.11,0.44,0.17,0.66c0.73,2.6,1.96,5.13,3.64,7.36
		c4.44,5.91,12.12,9.77,22.42,7.42c6.85-1.56,16.07-7.59,24.92-17.07c7.54-8.08,14.76-18.62,19.98-31.01
		c-2.03-7.49-4.14-11.62-4.15-11.64c-0.39-0.78-0.07-1.73,0.71-2.12c0.78-0.39,1.73-0.07,2.12,0.71c0.02,0.03,6.09,11.94,7.78,31.75
		c0.21,2.44,0.55,4.94,1.07,7.41c1.58,7.59,4.76,15.14,10.49,20.5c5.69,5.32,13.98,8.53,25.85,7.51c2.07-0.18,4.23-0.48,6.49-0.91
		c2.39-6.38,3.55-12.65,4.28-22.59c0.06-0.87,0.82-1.53,1.69-1.47c0.87,0.06,1.53,0.82,1.47,1.69c-0.77,10.42-1.98,16.93-4.49,23.58
		c0.04,0.5-0.15,0.97-0.51,1.3c-2.26,5.62-5.47,11.53-10.16,20.14l-2.39,4.41c-3.37,6.22-2.08,11.88,1.7,16.08
		c2.24,2.49,5.35,4.49,8.88,5.82c3.57,1.34,7.58,2,11.58,1.79c9.13-0.49,18.25-5.56,22.14-17.42c7.5-22.87-0.24-60.06-1.7-66.61
		c-0.17-0.25-0.26-0.55-0.26-0.87l0-0.36c-0.01-0.07-0.01-0.15,0-0.22c-0.02-1.2-0.09-2.4-0.2-3.59c-0.24-0.27-0.38-0.62-0.39-1.01
		c-0.01-0.28,0.06-0.55,0.19-0.78c-0.15-1.15-0.34-2.29-0.56-3.41c-0.68-3.44-1.66-6.67-2.77-9.54c-1.03-2.66-2.49-5.41-4.27-8.17
		l-0.02-0.03c-3.07-4.76-7.08-9.56-11.49-14.02c-8-8.09-17.25-15-24.53-18.5c-0.79-0.38-1.12-1.32-0.74-2.11
		c0.21-0.44,0.59-0.73,1.02-0.85c0.04-0.01,0.09-0.02,0.13-0.03c2.21-0.48,4.37-1.05,6.49-1.71c0.28-0.21,0.63-0.32,0.98-0.31
		c0.91-0.3,1.8-0.61,2.69-0.94c0.26-0.21,0.59-0.33,0.92-0.35c10.71-4.1,20.18-10.39,28.12-17.43c6.72-5.96,12.32-12.43,16.65-18.55
		C549.65,390.91,548.49,387.87,547.5,384.9L547.5,384.9z"/>
	<path class="st5" d="M547.5,384.9c-2.21-0.8-4.3-2.16-6.15-3.9c-2.03-1.91-3.79-4.3-5.12-6.91c2.1,6.7,4.33,19.53-3.68,31.41
		c-11.51,17.07-37.43,27.83-37.43,27.83c2.21-0.48,4.37-1.05,6.49-1.71c0.28-0.21,0.63-0.32,0.98-0.31c0.91-0.3,1.8-0.61,2.69-0.94
		c0.26-0.21,0.59-0.33,0.92-0.35c10.71-4.1,20.18-10.39,28.12-17.43c6.72-5.96,12.32-12.43,16.65-18.55
		C549.65,390.91,548.49,387.87,547.5,384.9L547.5,384.9z M384.95,500.27c-0.19,0.72-0.32,1.46-0.4,2.22
		c-0.24,2.12-0.09,4.35,0.4,6.56c0.07,0.16,0.11,0.33,0.12,0.5c0.05,0.22,0.11,0.44,0.17,0.66c0.73,2.6,1.96,5.13,3.64,7.36
		c4.44,5.91,12.12,9.77,22.42,7.42c6.85-1.56,16.07-7.59,24.92-17.07c7.54-8.08,14.76-18.62,19.98-31.01
		c-1.2-4.43-2.43-7.69-3.24-9.61c-4.68,6.22-30.02,39.09-45.52,42.53C393.84,512.87,387.13,504.04,384.95,500.27L384.95,500.27z
		 M455.87,466.08c1.8,4.3,5.52,14.71,6.79,29.54c0.21,2.44,0.55,4.94,1.07,7.41c1.58,7.59,4.76,15.14,10.49,20.5
		c5.69,5.32,13.98,8.53,25.85,7.51c2.07-0.18,4.23-0.48,6.49-0.91c2.09-5.58,3.24-11.07,3.98-19c-2.46,2.06-7.78,5.06-17.85,5.02
		c-15.29-0.06-25.4-10.59-28.14-25.58C461.81,475.58,455.87,466.08,455.87,466.08L455.87,466.08L455.87,466.08z M495.17,568.32
		c0.07,0.2,0.14,0.4,0.22,0.6C495.32,568.7,495.25,568.51,495.17,568.32L495.17,568.32z M496.11,570.43c0.55,1,1.24,1.95,2.03,2.83
		c2.24,2.49,5.35,4.49,8.88,5.82c3.57,1.34,7.58,2,11.58,1.79c9.13-0.49,18.25-5.56,22.14-17.42c7.5-22.87-0.24-60.06-1.7-66.61
		c-0.17-0.25-0.26-0.55-0.26-0.87l0-0.36c-0.01-0.07-0.01-0.15,0-0.22c-0.02-1.2-0.09-2.4-0.2-3.59c-0.24-0.27-0.38-0.62-0.39-1.01
		c-0.01-0.28,0.06-0.55,0.19-0.78c-0.15-1.15-0.34-2.29-0.56-3.41c-0.68-3.44-1.66-6.67-2.77-9.54c-1.03-2.66-2.49-5.41-4.27-8.17
		l-0.02-0.03c-3.07-4.76-7.08-9.56-11.49-14.02c-7.61-7.7-16.35-14.33-23.46-17.97v0c0,0,24.17,19.24,31.07,36.14
		c6.9,16.9,4.88,22.49,4.88,22.49s9.49,40.03,2.86,63.29C528.3,580.83,501.61,579.12,496.11,570.43L496.11,570.43z"/>
	<path class="st5" d="M552.95,385.68c-0.61,0.05-1.22,0.05-1.83,0.01c0.61,1.71,1.27,3.45,1.98,5.22c0.6-0.92,1.16-1.82,1.69-2.71
		C554.17,387.36,553.55,386.52,552.95,385.68L552.95,385.68z"/>
	<path class="st5" d="M556.75,384.72c-0.15,0.06-0.3,0.13-0.45,0.18l0.21,0.28L556.75,384.72L556.75,384.72z"/>
	<path class="st4" d="M550.01,351.9c-1.72-0.45-3.28-0.51-4.67-0.28c-0.31,0.25-0.71,0.38-1.13,0.35c-0.05,0-0.11-0.01-0.16-0.02
		l-0.02,0c-1.63,0.55-3,1.57-4.08,2.9c-1.12,1.38-1.94,3.09-2.44,4.96c-0.84,3.14-0.77,6.7,0.31,9.9c1.16,3.43,3.19,6.63,5.7,8.99
		c1.59,1.49,3.36,2.64,5.21,3.28c0.31,0,0.61,0.09,0.86,0.26c1.71,0.44,3.48,0.43,5.21-0.16c1.54-0.52,3.09-1.5,4.58-3.04
		c0.52-1.32,0.93-2.56,1.22-3.7c2.57-9.85-1.13-17.09-6.87-21.27C552.57,353.22,551.32,352.5,550.01,351.9L550.01,351.9z"/>
	<path class="st5" d="M537.51,359.82c-0.84,3.14-0.77,6.7,0.31,9.9c1.16,3.43,3.19,6.63,5.7,8.99c1.59,1.49,3.36,2.64,5.21,3.28
		c0.31,0,0.61,0.09,0.86,0.26c1.71,0.44,3.48,0.43,5.21-0.16c1.54-0.52,3.09-1.5,4.58-3.04c0.52-1.32,0.93-2.56,1.22-3.7
		c1.4-5.38,0.94-9.98-0.71-13.73c-0.36,4.23-3.04,10.06-9.62,9.68C541.84,370.82,537.51,359.82,537.51,359.82L537.51,359.82z"/>
	<path class="st4" d="M179.09,676.61c-0.14,0.86-0.95,1.45-1.81,1.31c-0.86-0.14-1.45-0.95-1.31-1.81
		c2.26-13.96,15.02-23.26,28.27-32.91c14.51-10.57,29.64-21.58,30.96-39.3c0.06-0.87,0.83-1.53,1.7-1.46
		c0.87,0.06,1.53,0.83,1.46,1.7c-1.43,19.16-17.16,30.62-32.26,41.62C193.39,655.02,181.14,663.94,179.09,676.61L179.09,676.61z"/>
	<path class="st4" d="M210.42,585.01c-9.05,7.32-20.58,10.69-32.31,14.13c-21.32,6.25-43.33,12.7-50.69,44.24
		c5.92,2.4,14.55,2.89,24.33,1.54c9.96-1.38,21.06-4.67,31.73-9.83c3.19-2.19,6.44-4.27,9.68-6.34c10.12-6.47,20.03-12.8,26.6-21.82
		c-3.94-5.21-6.54-10.47-8.04-15.65C211.11,589.16,210.69,587.07,210.42,585.01L210.42,585.01z"/>
	<path class="st5" d="M210.42,585.01c-3.03,2.45-6.35,4.46-9.85,6.18c-3.81,10.96-10.86,22.57-25.48,29.95
		c-15.36,7.75-32.36,8.51-42.64,8.05c-2.06,4.07-3.76,8.76-5.03,14.19c5.92,2.4,14.55,2.89,24.33,1.54
		c9.96-1.38,21.06-4.67,31.73-9.83c3.19-2.19,6.44-4.27,9.68-6.34c10.12-6.47,20.03-12.8,26.6-21.82
		c-3.94-5.21-6.54-10.47-8.04-15.65C211.11,589.16,210.69,587.07,210.42,585.01L210.42,585.01z"/>
	<path class="st5" d="M298.04,641.57l1.08,3.14c0.84,2.43,1.69,4.88,2.53,7.33c13.41,1.92,26.63,1.26,37.93-0.87
		c13.24-2.5,23.78-6.99,28.79-11.71c5.23-4.92,7.14-10.39,6.88-15.48c-0.17-3.44-1.34-6.74-3.13-9.61c-1.8-2.88-4.22-5.3-6.9-6.99
		c-3.67-2.3-7.81-3.21-11.45-1.95c-5.46,7.63-15.01,16.44-27.18,23.78C318.2,634.3,308.52,638.7,298.04,641.57L298.04,641.57z"/>
	<path class="st5" d="M217.75,718.86c-4.4-6.19-5.86-13.95-5.64-22.02c-1.79-0.36-3.82-0.49-5.78-0.09
		c-1.81,0.37-3.59,1.2-5.13,2.75c-2.41,2.42-2.82,7.75-1.42,12.63c0.58,2.02,1.47,3.93,2.67,5.51c1.15,1.52,2.58,2.72,4.27,3.39
		C209.55,722.13,213.23,721.75,217.75,718.86L217.75,718.86z"/>
	<path class="st4" d="M226.36,649.61c0.03-0.04,0.06-0.08,0.09-0.12c6.26-8.53,11.01-18.13,13.22-28.52
		c1.03-4.85,1.51-9.87,1.33-15.02c-0.03-0.87,0.66-1.6,1.53-1.63c0.87-0.03,1.6,0.66,1.63,1.53c0.17,4.89-0.22,9.65-1.09,14.26
		c10.62,2.98,21.96,0.68,32.11-4.15c4.12-1.96,8.04-4.34,11.64-6.94c0.07-0.06,0.14-0.11,0.22-0.16
		c8.12-5.93,14.55-13.01,17.82-19.15c3.71-6.95,4.86-13.05,4.81-18.02c-0.53,0.77-1.11,1.56-1.73,2.3
		c-0.56,0.67-1.56,0.75-2.23,0.19c-0.67-0.56-0.75-1.56-0.19-2.23c1.69-2.01,3.11-4.51,3.63-5.48c-1.08-5.64-3.46-8.86-3.47-8.87
		c-0.09-0.13-0.17-0.28-0.22-0.44c-0.04-0.13-0.09-0.27-0.15-0.4c-0.55,0.41-1.26,0.73-2.04,0.98c-2.2,0.71-5.26,0.91-6.61,0.74
		c-0.87-0.11-1.49-0.9-1.38-1.77c0.11-0.87,0.9-1.49,1.77-1.38c1.06,0.13,3.49-0.04,5.26-0.61c0.42-0.14,0.78-0.29,1.03-0.45
		l-0.11-0.11c-0.03-0.03-0.06-0.07-0.09-0.1c-1.58-1.35-3.79-2.64-6.34-3.85c-4.68-2.24-10.46-4.18-15.54-5.84
		c-1.07-0.35-2.18-0.73-3.33-1.12c-9.59-3.27-21.9-7.46-37.62-2.91c-3.18,0.92-6.63,2.81-9.97,5.46c-5.59,4.44-10.83,10.98-14,18.73
		c-3.15,7.72-4.25,16.63-1.58,25.85c1.31,4.53,3.53,9.14,6.87,13.73c1.44-2.35,2.66-4.87,3.61-7.62c0.29-0.82,1.19-1.26,2.01-0.97
		c0.82,0.29,1.26,1.19,0.97,2.01c-1.25,3.58-2.89,6.8-4.85,9.74c-0.07,0.36-0.26,0.7-0.57,0.95c-0.05,0.04-0.1,0.07-0.15,0.11
		c-6.87,9.69-17.22,16.31-27.79,23.07c-2.82,1.8-5.65,3.61-8.43,5.49c-0.15,0.24-0.37,0.44-0.64,0.57l-0.71,0.35
		c-15.59,10.77-29.26,24.19-29.07,51.49c1.56,0.23,3.25,0.32,5.05,0.25c12.48-0.43,30-7.69,45.5-19.8
		C213.88,664.06,220.73,657.27,226.36,649.61L226.36,649.61z"/>
	<path class="st5" d="M225.55,550.24c-3.7,3.96-6.98,8.83-9.21,14.3c-3.15,7.72-4.25,16.63-1.58,25.85
		c1.31,4.53,3.53,9.14,6.87,13.73c1.01-1.64,1.9-3.37,2.68-5.2C211.96,582.03,220.87,556.48,225.55,550.24L225.55,550.24z"/>
	<path class="st5" d="M244.1,611.72c-0.16,2.85-0.51,5.65-1.03,8.39c10.62,2.98,21.96,0.68,32.11-4.15
		c4.12-1.96,8.04-4.34,11.64-6.94c0.07-0.06,0.14-0.11,0.22-0.16c8.12-5.93,14.55-13.01,17.82-19.15c2.67-5,4.01-9.55,4.54-13.57
		C308.27,586.2,282.48,622.65,244.1,611.72L244.1,611.72z"/>
	<path class="st5" d="M226.36,649.61c0.03-0.04,0.06-0.08,0.09-0.12c6.26-8.53,11.01-18.13,13.22-28.52
		c0.64-3.01,1.07-6.08,1.26-9.21c-2.04-2.87-7.37,3.73-8.13,5.45c-0.95,2.14-6.9,9.28-9.4,12.25c-2.5,2.98-9.52,9.52-16.78,13.68
		c-7.26,4.16-23.32,19.39-27.01,25.82c-2.77,4.82-3.12,13.45-3.13,17.47c9.64-3.28,20.26-8.99,30.08-16.66
		C213.88,664.06,220.73,657.27,226.36,649.61L226.36,649.61z"/>
	<path class="st4" d="M262.98,733.96c0.23,7.13,0.84,15.4,2.21,23.53c1.41,8.39,3.61,16.6,7.03,23.19
		c5.75,11.08,15.57,14.62,24.67,13.63c3.98-0.43,7.83-1.72,11.13-3.62c3.27-1.88,6.02-4.35,7.83-7.17
		c3.06-4.75,3.42-10.55-0.91-16.15c-1.72-2.23-3.08-3.96-4.34-5.58c-11.3-14.48-15.4-19.74-19.41-34.37
		C283.93,731.27,274.58,733.59,262.98,733.96L262.98,733.96z"/>
	<path class="st5" d="M262.98,733.96c0.23,7.13,0.84,15.4,2.21,23.53c1.41,8.39,3.61,16.6,7.03,23.19
		c5.75,11.08,15.57,14.62,24.67,13.63c3.98-0.43,7.83-1.72,11.13-3.62c3.27-1.88,6.02-4.35,7.83-7.17
		c-31.77,15.44-44.25-25.2-41.64-35.31c1.74-6.74,11.89-12.63,18.47-15.82c-0.5-1.54-0.99-3.18-1.48-4.96
		C283.93,731.27,274.58,733.59,262.98,733.96L262.98,733.96z"/>
	<path class="st4" d="M255.99,731.76c0.02-0.04,0.04-0.08,0.06-0.11c1.2-2.39,2.49-4.77,3.86-7.15c0.44-0.76,1.41-1.01,2.16-0.58
		s1.02,1.41,0.58,2.16c-0.92,1.59-1.8,3.17-2.64,4.76c0.4,0,0.8,0,1.2-0.01c16.03-0.25,27.63-4.2,35.21-10.76
		c7.5-6.48,11.11-15.57,11.26-26.16c0.01-0.47,0.01-0.95,0-1.44c-0.22-14.14-6.02-30.83-11.54-46.74l-1.17-3.38
		c-4.46,1.08-9.05,1.87-13.74,2.32c-0.87,0.08-1.64-0.56-1.72-1.42c-0.08-0.87,0.56-1.64,1.42-1.72c5-0.48,9.89-1.36,14.62-2.58
		c0.04-0.01,0.07-0.02,0.11-0.03c10.77-2.77,20.72-7.24,29.31-12.42c15.67-9.45,26.74-21.22,29.94-29.42
		c3.71-9.49,0.89-17.11-4.33-21.93c-2.23-2.06-4.91-3.63-7.71-4.61c-2.78-0.98-5.66-1.38-8.32-1.13c-4.89,0.46-9.07,3.18-10.4,8.66
		c-9.11,37.7-51.45,49.76-51.57,49.8c-0.84,0.25-1.72-0.23-1.96-1.07c-0.25-0.84,0.23-1.72,1.07-1.96
		c0.05-0.01,7.06-2.02,15.87-6.91c-0.25-1.15-0.48-2.27-0.67-3.35c-0.09-0.52-0.18-1.04-0.26-1.56c-3.18,2.16-6.57,4.13-10.1,5.81
		c-10.71,5.09-22.74,7.52-34.12,4.38c-2.43,10.22-7.2,19.67-13.37,28.1c-0.74,1.36-12.63,23.63-13.77,43.93
		c0.05,0.24,0.05,0.49-0.01,0.75c-0.01,0.04-0.02,0.07-0.03,0.1c-0.44,10.74,2.23,20.84,11.29,26.87
		c6.94-7.58,12.35-12.49,12.39-12.53c0.64-0.59,1.64-0.54,2.23,0.1s0.54,1.64-0.1,2.23c-0.09,0.08-32.35,29.37-39.72,54.75
		c-3.48,11.99,1.2,21.33,8.46,26.88c3.18,2.43,6.86,4.15,10.56,5.05c3.68,0.9,7.37,1,10.62,0.21c5.49-1.33,9.75-5.28,10.47-12.32
		c1.34-13.07,3.29-24.17,6.24-34.31C249.86,745.53,252.58,738.58,255.99,731.76L255.99,731.76z"/>
	<path class="st5" d="M236.15,717.47c-9.33,9.29-29.25,30.79-34.83,50.05c-3.48,11.99,1.2,21.33,8.46,26.88
		c3.18,2.43,6.86,4.15,10.56,5.05c3.68,0.9,7.37,1,10.62,0.21c5.49-1.33,9.75-5.28,10.47-12.32l0.09-0.87
		c-8.44,4.84-26.85,2.08-28.36-13.38C211.36,754.65,236.12,717.51,236.15,717.47L236.15,717.47z"/>
	<path class="st5" d="M283.96,641.2c3.95-0.51,7.82-1.27,11.59-2.24c0.04-0.01,0.07-0.02,0.11-0.03
		c10.77-2.77,20.72-7.24,29.31-12.42c15.67-9.45,26.74-21.22,29.94-29.42c3.71-9.49,0.89-17.11-4.33-21.93
		c-2.23-2.06-4.91-3.63-7.71-4.61C372.2,596.92,308,634.92,283.96,641.2L283.96,641.2z"/>
	<path class="st5" d="M270.64,626.88l-0.02-0.08c-0.25-0.84,0.23-1.72,1.07-1.96c0.05-0.01,7.06-2.02,15.87-6.91
		c-0.25-1.15-0.48-2.27-0.67-3.35c-0.09-0.52-0.18-1.04-0.26-1.56c-3.18,2.16-6.57,4.13-10.1,5.81
		c-10.71,5.09-22.74,7.52-34.12,4.38c-2.43,10.22-7.2,19.67-13.37,28.1c-0.74,1.36-12.63,23.63-13.77,43.93
		c0.05,0.24,0.05,0.49-0.01,0.75c-0.01,0.04-0.02,0.07-0.03,0.1c-0.44,10.74,2.23,20.84,11.29,26.87c3.01-3.29,5.73-6.07,7.85-8.18
		c-3.32-3.35-5.57-7.45-6.21-12.27c-2.18-16.21,5.4-43.14,12.46-58.07C247.05,630.83,257.6,630.4,270.64,626.88L270.64,626.88z"/>
	<path class="st5" d="M262.8,725.73c-0.04,0.12-0.08,0.24-0.15,0.36c-0.92,1.59-1.8,3.17-2.64,4.76c0.4,0,0.8,0,1.2-0.01
		c16.03-0.25,27.63-4.2,35.21-10.76c7.5-6.48,11.11-15.57,11.26-26.16c0.01-0.47,0.01-0.95,0-1.44c-0.05-3.24-0.39-6.61-0.96-10.07
		c0.04,0.43,2.65,28.04-18.13,38.54C281.21,724.69,271.9,726.25,262.8,725.73L262.8,725.73z"/>
	<path class="st6" d="M399.23,409.83c1.68-1.48,4.95-0.5,7.32,2.19c2.37,2.69,2.93,6.06,1.25,7.54c-1.68,1.48-4.95,0.5-7.32-2.19
		C398.11,414.68,397.55,411.31,399.23,409.83L399.23,409.83z"/>
	<path class="st6" d="M435.82,377.57c1.68-1.48,4.95-0.5,7.32,2.19c2.37,2.69,2.93,6.06,1.25,7.54c-1.67,1.48-4.95,0.5-7.32-2.19
		C434.7,382.43,434.14,379.05,435.82,377.57L435.82,377.57z"/>
	<path class="st6" d="M270.26,562.58c1.68-1.48,4.95-0.5,7.32,2.19c2.37,2.69,2.93,6.06,1.25,7.54c-1.68,1.48-4.95,0.5-7.32-2.19
		S268.58,564.06,270.26,562.58L270.26,562.58z"/>
	<path class="st7" d="M294.02,725.78c3.92,14.65,7.86,19.7,19.07,34.06c1.42,1.82,2.96,3.79,4.35,5.59
		c5.29,6.84,4.83,13.95,1.07,19.79c-2.09,3.24-5.21,6.07-8.92,8.2c-3.68,2.11-7.95,3.55-12.37,4.03
		c-10.27,1.12-21.35-2.86-27.81-15.33c-3.59-6.92-5.89-15.45-7.34-24.12c-1.39-8.28-2.01-16.72-2.24-23.99c-0.47,0-0.94,0-1.41-0.01
		c-3.14,6.39-5.66,12.91-7.7,19.9c-2.89,9.93-4.81,20.85-6.13,33.75c-0.88,8.6-6.12,13.43-12.87,15.07
		c-3.75,0.91-7.96,0.81-12.11-0.21c-4.13-1.01-8.21-2.91-11.74-5.61c-8.21-6.27-13.49-16.79-9.58-30.28
		c4.22-14.55,16.22-30.21,26.09-41.3c-1.75-1.21-3.28-2.55-4.61-4.01c-5.63,3.7-10.4,4.12-14.2,2.63c-2.27-0.89-4.16-2.46-5.64-4.43
		c-1.44-1.9-2.51-4.18-3.19-6.55c-1.69-5.87-1-12.49,2.23-15.72c2.02-2.03,4.37-3.13,6.74-3.61c2.27-0.46,4.55-0.37,6.59,0
		c0.94-11.98,5.2-24.26,8.77-32.78c-3.92,4.15-8.15,7.97-12.55,11.4c-16.02,12.51-34.26,20.01-47.35,20.46
		c-2.55,0.09-4.92-0.09-7.04-0.54c-0.7-0.15-1.24-0.77-1.25-1.52c-0.54-23.68,8.53-37.54,20.58-47.95
		c-7.28,2.61-14.52,4.39-21.26,5.33c-11.04,1.53-20.8,0.78-27.28-2.32c-0.65-0.31-1.03-1.03-0.87-1.77
		c7.46-34.47,30.7-41.28,53.2-47.87c12.17-3.56,24.11-7.06,32.88-14.99c-0.2-6.3,1.08-12.31,3.3-17.76
		c3.39-8.29,8.98-15.28,14.95-20.02c3.66-2.91,7.49-4.99,11.06-6.02c16.68-4.83,29.51-0.46,39.51,2.95c1.13,0.39,2.23,0.76,3.3,1.11
		c5.15,1.68,11.03,3.66,15.93,6c2.76,1.32,5.21,2.77,7.05,4.36c0.1,0.06,0.2,0.14,0.28,0.23c0.04,0.05,0.09,0.09,0.13,0.14
		c1.3,1.2,2.26,2.48,2.76,3.84c1.17,1.72,9.79,15.54-0.74,35.27c-3.38,6.33-9.89,13.61-18.11,19.74c0.13,0.99,0.29,2.02,0.48,3.08
		c0.13,0.74,0.28,1.48,0.43,2.23c11.91-7.21,25.94-19.5,30.63-38.92c1.69-7.01,6.99-10.49,13.19-11.07
		c3.12-0.29,6.46,0.17,9.66,1.29c3.18,1.12,6.23,2.91,8.8,5.28c6.09,5.63,9.4,14.47,5.13,25.4c-0.44,1.12-1,2.29-1.7,3.51
		c3.63-0.28,7.38,0.85,10.75,2.97c3.08,1.94,5.86,4.71,7.91,7.99c2.06,3.29,3.39,7.11,3.6,11.13c0.3,5.95-1.88,12.29-7.87,17.93
		c-5.42,5.1-16.54,9.91-30.38,12.52c-11.17,2.11-24.16,2.81-37.38,1.11c4.25,12.77,7.88,25.61,8.05,37.05c0.01,0.5,0.01,1.01,0,1.51
		c-0.16,11.5-4.12,21.4-12.35,28.51C297.12,723.66,295.63,724.76,294.02,725.78L294.02,725.78z M255.99,731.76
		c0.02-0.04,0.04-0.08,0.06-0.11c1.2-2.39,2.49-4.77,3.86-7.15c0.44-0.76,1.41-1.01,2.16-0.58s1.02,1.41,0.58,2.16
		c-0.92,1.59-1.8,3.17-2.64,4.76c0.4,0,0.8,0,1.2-0.01c16.03-0.25,27.63-4.2,35.21-10.76c7.5-6.48,11.11-15.57,11.26-26.16
		c0.01-0.47,0.01-0.95,0-1.44c-0.22-14.14-6.02-30.83-11.54-46.74l-1.17-3.38c-4.46,1.08-9.05,1.87-13.74,2.32
		c-0.87,0.08-1.64-0.56-1.72-1.42c-0.08-0.87,0.56-1.64,1.42-1.72c5-0.48,9.89-1.36,14.62-2.58c0.04-0.01,0.07-0.02,0.11-0.03
		c10.77-2.77,20.72-7.24,29.31-12.42c15.67-9.45,26.74-21.22,29.94-29.42c3.71-9.49,0.89-17.11-4.33-21.93
		c-2.23-2.06-4.91-3.63-7.71-4.61c-2.78-0.98-5.66-1.38-8.32-1.13c-4.89,0.46-9.07,3.18-10.4,8.66
		c-9.11,37.7-51.45,49.76-51.57,49.8c-0.84,0.25-1.72-0.23-1.96-1.07c-0.25-0.84,0.23-1.72,1.07-1.96
		c0.05-0.01,7.06-2.02,15.87-6.91c-0.25-1.15-0.48-2.27-0.67-3.35c-0.09-0.52-0.18-1.04-0.26-1.56c-3.18,2.16-6.57,4.13-10.1,5.81
		c-10.71,5.09-22.74,7.52-34.12,4.38c-2.43,10.22-7.2,19.67-13.37,28.1c-0.74,1.36-12.63,23.63-13.77,43.93
		c0.05,0.24,0.05,0.49-0.01,0.75c-0.01,0.04-0.02,0.07-0.03,0.1c-0.44,10.74,2.23,20.84,11.29,26.87
		c6.94-7.58,12.35-12.49,12.39-12.53c0.64-0.59,1.64-0.54,2.23,0.1s0.54,1.64-0.1,2.23c-0.09,0.08-32.35,29.37-39.72,54.75
		c-3.48,11.99,1.2,21.33,8.46,26.88c3.18,2.43,6.86,4.15,10.56,5.05c3.68,0.9,7.37,1,10.62,0.21c5.49-1.33,9.75-5.28,10.47-12.32
		c1.34-13.07,3.29-24.17,6.24-34.31C249.86,745.53,252.58,738.58,255.99,731.76L255.99,731.76z M262.98,733.96
		c0.23,7.13,0.84,15.4,2.21,23.53c1.41,8.39,3.61,16.6,7.03,23.19c5.75,11.08,15.57,14.62,24.67,13.63
		c3.98-0.43,7.83-1.72,11.13-3.62c3.27-1.88,6.02-4.35,7.83-7.17c3.06-4.75,3.42-10.55-0.91-16.15c-1.72-2.23-3.08-3.96-4.34-5.58
		c-11.3-14.48-15.4-19.74-19.41-34.37C283.93,731.27,274.58,733.59,262.98,733.96L262.98,733.96z M226.36,649.61
		c0.03-0.04,0.06-0.08,0.09-0.12c6.26-8.53,11.01-18.13,13.22-28.52c1.03-4.85,1.51-9.87,1.33-15.02c-0.03-0.87,0.66-1.6,1.53-1.63
		c0.87-0.03,1.6,0.66,1.63,1.53c0.17,4.89-0.22,9.65-1.09,14.26c10.62,2.98,21.96,0.68,32.11-4.15c4.12-1.96,8.04-4.34,11.64-6.94
		c0.07-0.06,0.14-0.11,0.22-0.16c8.12-5.93,14.55-13.01,17.82-19.15c3.71-6.95,4.86-13.05,4.81-18.02c-0.53,0.77-1.11,1.56-1.73,2.3
		c-0.56,0.67-1.56,0.75-2.23,0.19c-0.67-0.56-0.75-1.56-0.19-2.23c1.69-2.01,3.11-4.51,3.63-5.48c-1.08-5.64-3.46-8.86-3.47-8.87
		c-0.09-0.13-0.17-0.28-0.22-0.44c-0.04-0.13-0.09-0.27-0.15-0.4c-0.55,0.41-1.26,0.73-2.04,0.98c-2.2,0.71-5.26,0.91-6.61,0.74
		c-0.87-0.11-1.49-0.9-1.38-1.77c0.11-0.87,0.9-1.49,1.77-1.38c1.06,0.13,3.49-0.04,5.26-0.61c0.42-0.14,0.78-0.29,1.03-0.45
		l-0.11-0.11c-0.03-0.03-0.06-0.07-0.09-0.1c-1.58-1.35-3.79-2.64-6.34-3.85c-4.68-2.24-10.46-4.18-15.54-5.84
		c-1.07-0.35-2.18-0.73-3.33-1.12c-9.59-3.27-21.9-7.46-37.62-2.91c-3.18,0.92-6.63,2.81-9.97,5.46c-5.59,4.44-10.83,10.98-14,18.73
		c-3.15,7.72-4.25,16.63-1.58,25.85c1.31,4.53,3.53,9.14,6.87,13.73c1.44-2.35,2.66-4.87,3.61-7.62c0.29-0.82,1.19-1.26,2.01-0.97
		c0.82,0.29,1.26,1.19,0.97,2.01c-1.25,3.58-2.89,6.8-4.85,9.74c-0.07,0.36-0.26,0.7-0.57,0.95c-0.05,0.04-0.1,0.07-0.15,0.11
		c-6.87,9.69-17.22,16.31-27.79,23.07c-2.82,1.8-5.65,3.61-8.43,5.49c-0.15,0.24-0.37,0.44-0.64,0.57l-0.71,0.35
		c-15.59,10.77-29.26,24.19-29.07,51.49c1.56,0.23,3.25,0.32,5.05,0.25c12.48-0.43,30-7.69,45.5-19.8
		C213.88,664.06,220.73,657.27,226.36,649.61L226.36,649.61z M217.75,718.86c-4.4-6.19-5.86-13.95-5.64-22.02
		c-1.79-0.36-3.82-0.49-5.78-0.09c-1.81,0.37-3.59,1.2-5.13,2.75c-2.41,2.42-2.82,7.75-1.42,12.63c0.58,2.02,1.47,3.93,2.67,5.51
		c1.15,1.52,2.58,2.72,4.27,3.39C209.55,722.13,213.23,721.75,217.75,718.86L217.75,718.86z M298.04,641.57l1.08,3.14
		c0.84,2.43,1.69,4.88,2.53,7.33c13.41,1.92,26.63,1.26,37.93-0.87c13.24-2.5,23.78-6.99,28.79-11.71
		c5.23-4.92,7.14-10.39,6.88-15.48c-0.17-3.44-1.34-6.74-3.13-9.61c-1.8-2.88-4.22-5.3-6.9-6.99c-3.67-2.3-7.81-3.21-11.45-1.95
		c-5.46,7.63-15.01,16.44-27.18,23.78C318.2,634.3,308.52,638.7,298.04,641.57L298.04,641.57z M210.42,585.01
		c-9.05,7.32-20.58,10.69-32.31,14.13c-21.32,6.25-43.33,12.7-50.69,44.24c5.92,2.4,14.55,2.89,24.33,1.54
		c9.96-1.38,21.06-4.67,31.73-9.83c3.19-2.19,6.44-4.27,9.68-6.34c10.12-6.47,20.03-12.8,26.6-21.82
		c-3.94-5.21-6.54-10.47-8.04-15.65C211.11,589.16,210.69,587.07,210.42,585.01L210.42,585.01z M179.09,676.61
		c-0.14,0.86-0.95,1.45-1.81,1.31c-0.86-0.14-1.45-0.95-1.31-1.81c2.26-13.96,15.02-23.26,28.27-32.91
		c14.51-10.57,29.64-21.58,30.96-39.3c0.06-0.87,0.83-1.53,1.7-1.46c0.87,0.06,1.53,0.83,1.46,1.7
		c-1.43,19.16-17.16,30.62-32.26,41.62C193.39,655.02,181.14,663.94,179.09,676.61L179.09,676.61z M551.12,348.93
		c0.05,0.02,0.09,0.04,0.13,0.06c1.52,0.69,2.98,1.53,4.35,2.53c6.7,4.87,11.03,13.27,8.07,24.63c-0.34,1.29-0.81,2.71-1.42,4.24
		c-0.03,0.09-0.06,0.19-0.11,0.27c-0.91,2.24-2.11,4.7-3.58,7.3c4.52,5.92,9.42,11.57,14.75,16.9c6.72,6.72,14.13,12.93,22.29,18.51
		c0.72,0.49,0.91,1.48,0.42,2.2c-0.49,0.72-1.48,0.91-2.2,0.42c-8.32-5.69-15.87-12.02-22.73-18.88
		c-5.13-5.13-9.87-10.55-14.26-16.21c-0.71,1.15-1.47,2.32-2.27,3.5c1.4,3.21,2.98,6.51,4.76,9.9c3.94,7.55,8.84,15.61,14.81,24.23
		c0.5,0.72,0.32,1.7-0.4,2.2c-0.72,0.5-1.7,0.32-2.2-0.4c-6.03-8.72-11-16.89-15-24.57c-1.49-2.85-2.85-5.64-4.08-8.36
		c-4.02,5.48-8.98,11.16-14.78,16.46l0.36,0.2c0.75,0.41,1.5,0.82,2.24,1.2c8.83,4.64,13.46,8.72,14.95,12.14
		c1.18,2.7,0.62,5.02-1.28,6.91c-1.62,1.62-4.29,2.85-7.68,3.69c-5.22,1.28-12.35,1.68-20.11,1.11c-0.08,0-0.16,0-0.25-0.01
		l-0.1-0.01c-7.53-0.57-15.62-2.05-23.09-4.48c-0.96,0.3-1.92,0.58-2.89,0.85c6.87,3.96,14.76,10.13,21.69,17.14
		c4.02,4.06,7.73,8.42,10.74,12.81c1.38-1.45,3.08-2.83,5.08-3.78c2.18-1.04,4.71-1.58,7.56-1.17c4.39,0.63,8.55,5.19,10.53,10.67
		c0.83,2.3,1.3,4.77,1.26,7.19c-0.05,2.48-0.63,4.91-1.91,7.04c-2.17,3.62-6.26,6.31-12.98,6.88c0.08,1,0.13,2.01,0.15,3.03
		c0.63,2.71,10.06,44.03,1.82,69.17c-4.37,13.35-14.67,19.06-24.99,19.6c-4.44,0.24-8.88-0.49-12.85-1.99
		c-4-1.5-7.54-3.79-10.12-6.66c-4.65-5.16-6.25-12.11-2.13-19.71c1.4-2.59,0.88-1.6,2.41-4.41c4.03-7.4,6.94-12.75,9.09-17.66
		c-1.67,0.27-3.27,0.47-4.82,0.61c-0.66,0.06-1.31,0.1-1.95,0.13c-2.75,6.86-6.59,15.49-11.31,23.83
		c-4.96,8.76-10.9,17.23-17.63,23.09c-10.59,9.23-22.36,8.85-31.5,4.04c-3.94-2.07-7.38-4.97-10.03-8.29
		c-2.67-3.34-4.53-7.12-5.29-10.91c-1.35-6.81,0.83-13.6,8.26-18.02l4.32-2.56c16.79-9.94,22.84-13.53,31.9-25.59
		c-3.25-4.91-5.29-10.59-6.48-16.27c-0.55-2.64-0.92-5.26-1.13-7.79c-0.45-5.25-1.21-9.91-2.07-13.91
		c-5.18,11.11-11.9,20.64-18.88,28.12c-9.29,9.94-19.12,16.31-26.55,18c-11.73,2.67-20.52-1.79-25.65-8.61
		c-1.35-1.8-2.44-3.75-3.26-5.79c-1.19,1.4-2.41,2.75-3.64,4.05l-0.01,0.01c-0.04,0.05-0.09,0.1-0.14,0.15
		c-6.37,6.68-13.03,11.8-18.29,13.96c-2.66,1.09-5.04,1.47-6.98,0.97c-2.18-0.56-3.71-2.09-4.38-4.77
		c-0.89-3.59-0.09-9.51,3.12-18.31c11.11-30.41,7.18-53.34,3.95-72.21c-1.58-9.25-3-17.55-2.47-25.39
		c0.64-9.4,4.48-16.55,9.56-21.57c5.97-5.9,13.67-8.83,19.93-8.99c0.89-7.17,4.73-14.64,13.87-22.69
		c10.94-9.64,20.1-11.87,28.46-10.58c0.81-1.6,1.93-3.15,3.31-4.58c3.49-3.63,8.66-6.59,14.57-8.01c5.89-1.41,12.53-1.28,18.96,1.27
		c3.69,1.47,7.31,3.73,10.67,6.96c5.66,5.44,10.18,12.55,15.23,20.47c5.41,8.49,11.43,17.94,20.06,27.17
		c7.83-8.56,14.31-19.24,15.83-31.9c0.63-5.24,3.4-8.83,7.22-10.89c-8.59-19.06-14.86-39.19-19.44-59.02
		c-5.1-22.09-8.1-43.81-9.85-63.26h-9.16c-0.88,0-1.59-0.71-1.59-1.59c0-0.34,0.11-0.66,0.29-0.92c1.61-2.79,3.22-5.58,4.83-8.37
		c-16.47-2.2-31.28-12.64-42.51-27.46c-13.32-17.58-21.62-41.36-21.62-64.76c0-22.12,7.4-39.87,19.46-52.31
		c12.87-13.29,31.03-20.49,51.13-20.49c20.1,0,38.25,7.21,51.13,20.49c12.06,12.45,19.46,30.2,19.46,52.31
		c0,23.39-8.3,47.17-21.62,64.76c-11.23,14.82-26.04,25.26-42.51,27.46l4.9,8.5c0.43,0.76,0.17,1.72-0.58,2.16
		c-0.25,0.14-0.52,0.21-0.79,0.21v0.01h-7.64c1.75,19.28,4.72,40.75,9.75,62.56c4.54,19.67,10.76,39.63,19.28,58.5
		c0.54-0.17,1.09-0.31,1.66-0.43c2.11-0.45,4.37-0.56,6.66-0.34c3.31-24.47,18.67-43.23,35.1-63.28
		c15.36-18.75,31.66-38.66,39.59-65.31l-8.01-2.84c-0.82-0.29-1.26-1.2-0.97-2.02c0.1-0.29,0.28-0.54,0.51-0.71l7.42-6.33
		c-14.79-7.58-25.25-22.37-30.88-40.09c-6.68-21.03-6.55-46.21,1.27-68.26c7.39-20.85,20.3-35.1,35.83-42.8
		c16.57-8.22,36.09-8.94,55.04-2.22c18.35,6.51,32.72,18.78,40.59,34.83c7.86,16.02,9.24,35.77,1.64,57.27
		c-0.02,0.07-0.05,0.14-0.08,0.21c-7.61,21.39-22.71,40.51-40.45,52.67c-15.91,10.91-33.99,16.25-50.78,12.7l1.78,9.65
		c0.16,0.86-0.41,1.68-1.27,1.84c-0.28,0.05-0.56,0.02-0.81-0.06l-7.84-2.78c-8.12,27.19-24.6,47.31-40.12,66.26
		c-16.14,19.71-31.24,38.14-34.42,61.78C547.93,347.69,549.56,348.22,551.12,348.93L551.12,348.93z M550.01,351.9
		c-1.72-0.45-3.28-0.51-4.67-0.28c-0.31,0.25-0.71,0.38-1.13,0.35c-0.05,0-0.11-0.01-0.16-0.02l-0.02,0c-1.63,0.55-3,1.57-4.08,2.9
		c-1.12,1.38-1.94,3.09-2.44,4.96c-0.84,3.14-0.77,6.7,0.31,9.9c1.16,3.43,3.19,6.63,5.7,8.99c1.59,1.49,3.36,2.64,5.21,3.28
		c0.31,0,0.61,0.09,0.86,0.26c1.71,0.44,3.48,0.43,5.21-0.16c1.54-0.52,3.09-1.5,4.58-3.04c0.52-1.32,0.93-2.56,1.22-3.7
		c2.57-9.85-1.13-17.09-6.87-21.27C552.57,353.22,551.32,352.5,550.01,351.9L550.01,351.9z M556.75,384.72
		c-0.15,0.06-0.3,0.13-0.45,0.18l0.21,0.28L556.75,384.72L556.75,384.72z M552.95,385.68c-0.61,0.05-1.22,0.05-1.83,0.01
		c0.61,1.71,1.27,3.45,1.98,5.22c0.6-0.92,1.16-1.82,1.69-2.71C554.17,387.36,553.55,386.52,552.95,385.68L552.95,385.68z
		 M547.5,384.9c-2.21-0.8-4.3-2.16-6.15-3.9c-2.88-2.71-5.21-6.37-6.53-10.29c-1.28-3.8-1.37-8.01-0.37-11.72
		c0.25-0.95,0.58-1.88,0.98-2.75c-0.74-1.51-1.46-3.02-2.17-4.54c-2.87,1.64-4.93,4.4-5.4,8.36c-3.17,26.37-28.19,48.26-51.95,59.11
		c-3.1,4.66-7.19,9.48-12.3,14.44c-0.07,0.06-0.13,0.12-0.21,0.17c-6.48,5.17-12.58,8.98-18.29,11.51
		c-3.58,6.92-10.92,19.18-22.4,29.56c-6.9,6.24-15.29,11.8-25.25,15.12c-0.11,0.05-0.22,0.09-0.33,0.11
		c-1.03,0.34-2.08,0.65-3.15,0.94c-0.55,0.15-1.07,0.32-1.57,0.52c-0.21,0.17-0.47,0.29-0.75,0.33c-4.3,2.04-6.6,6.07-7.11,10.63
		c-0.24,2.12-0.09,4.35,0.4,6.56c0.07,0.16,0.11,0.33,0.12,0.5c0.05,0.22,0.11,0.44,0.17,0.66c0.73,2.6,1.96,5.13,3.64,7.36
		c4.44,5.91,12.12,9.77,22.42,7.42c6.85-1.56,16.07-7.59,24.92-17.07c7.54-8.08,14.76-18.62,19.98-31.01
		c-2.03-7.49-4.14-11.62-4.15-11.64c-0.39-0.78-0.07-1.73,0.71-2.12c0.78-0.39,1.73-0.07,2.12,0.71c0.02,0.03,6.09,11.94,7.78,31.75
		c0.21,2.44,0.55,4.94,1.07,7.41c1.58,7.59,4.76,15.14,10.49,20.5c5.69,5.32,13.98,8.53,25.85,7.51c2.07-0.18,4.23-0.48,6.49-0.91
		c2.39-6.38,3.55-12.65,4.28-22.59c0.06-0.87,0.82-1.53,1.69-1.47c0.87,0.06,1.53,0.82,1.47,1.69c-0.77,10.42-1.98,16.93-4.49,23.58
		c0.04,0.5-0.15,0.97-0.51,1.3c-2.26,5.62-5.47,11.53-10.16,20.14l-2.39,4.41c-3.37,6.22-2.08,11.88,1.7,16.08
		c2.24,2.49,5.35,4.49,8.88,5.82c3.57,1.34,7.58,2,11.58,1.79c9.13-0.49,18.25-5.56,22.14-17.42c7.5-22.87-0.24-60.06-1.7-66.61
		c-0.17-0.25-0.26-0.55-0.26-0.87l0-0.36c-0.01-0.07-0.01-0.15,0-0.22c-0.02-1.2-0.09-2.4-0.2-3.59c-0.24-0.27-0.38-0.62-0.39-1.01
		c-0.01-0.28,0.06-0.55,0.19-0.78c-0.15-1.15-0.34-2.29-0.56-3.41c-0.68-3.44-1.66-6.67-2.77-9.54c-1.03-2.66-2.49-5.41-4.27-8.17
		l-0.02-0.03c-3.07-4.76-7.08-9.56-11.49-14.02c-8-8.09-17.25-15-24.53-18.5c-0.79-0.38-1.12-1.32-0.74-2.11
		c0.21-0.44,0.59-0.73,1.02-0.85c0.04-0.01,0.09-0.02,0.13-0.03c2.21-0.48,4.37-1.05,6.49-1.71c0.28-0.21,0.63-0.32,0.98-0.31
		c0.91-0.3,1.8-0.61,2.69-0.94c0.26-0.21,0.59-0.33,0.92-0.35c10.71-4.1,20.18-10.39,28.12-17.43c6.72-5.96,12.32-12.43,16.65-18.55
		C549.65,390.91,548.49,387.87,547.5,384.9L547.5,384.9z M537.37,353.01l0.13-0.16c0.98-1.21,2.15-2.23,3.5-3
		c-1.32-0.01-2.61,0.12-3.84,0.38c-0.33,0.07-0.66,0.15-0.98,0.24C536.57,351.33,536.97,352.17,537.37,353.01L537.37,353.01z
		 M541.44,489.07c5.6-0.45,8.92-2.55,10.61-5.36c0.98-1.63,1.42-3.51,1.46-5.46c0.04-2.02-0.36-4.1-1.07-6.06
		c-1.62-4.46-4.79-8.15-8.01-8.61c-2.15-0.31-4.08,0.11-5.75,0.9c-1.86,0.89-3.43,2.25-4.65,3.64c1.62,2.62,2.97,5.23,3.95,7.77
		c1.18,3.05,2.22,6.47,2.93,10.07C541.12,486.99,541.29,488.02,541.44,489.07L541.44,489.07z M526.3,435.96l0.05,0.01
		c7.4,0.54,14.18,0.17,19.13-1.04c2.85-0.7,5.01-1.66,6.21-2.86c0.93-0.92,1.19-2.06,0.61-3.4c-1.21-2.79-5.38-6.32-13.52-10.6
		c-0.79-0.42-1.56-0.83-2.29-1.23c-0.4-0.22-0.85-0.47-1.34-0.75c-7.16,6.16-15.48,11.7-24.78,15.68c1.7,0.72,3.49,1.36,5.36,1.94
		l0.13,0.03C519.08,434.7,522.55,435.46,526.3,435.96L526.3,435.96z M482.96,411.91c-0.44-0.7-0.88-1.42-1.32-2.15l-0.42-0.72
		c-0.6,1.58-1.32,3.18-2.16,4.81l-0.16,0.3C480.09,413.53,481.45,412.78,482.96,411.91L482.96,411.91z M482.52,404.93
		c0.59,1.07,1.2,2.14,1.84,3.21c0.42,0.71,0.87,1.43,1.33,2.15c6.2-3.79,13.99-9.28,21.01-16.4c-8.89-9.46-15.03-19.11-20.55-27.77
		c-4.93-7.75-9.36-14.69-14.76-19.89c-3.05-2.93-6.32-4.98-9.64-6.3c-5.78-2.3-11.75-2.41-17.06-1.14
		c-5.3,1.27-9.92,3.91-13.02,7.13c-0.94,0.98-1.74,2.01-2.36,3.06c1.87,0.49,3.71,1.14,5.52,1.9l0.17-0.1
		c5.49-3.04,10.94-2.87,15.79-0.74c4.72,2.08,8.84,6.04,11.83,10.7c0.4,0.62,0.79,1.28,1.17,1.96c0.65,1.18,1.27,2.37,1.86,3.55
		c0.5,1.01,0.98,2.02,1.44,3.02c2.37,1.81,4.5,3.68,6.37,5.61c5.4,5.56,8.7,11.61,9.7,18.14
		C483.76,396.85,483.56,400.82,482.52,404.93L482.52,404.93z M452.67,364c-2.37-1.23-4.76-2.61-7.15-3.98
		c-16.4-9.44-28.52-13.97-45.8,1.25c-12.81,11.29-14.24,21.44-11.96,31.27c0.04,0.07,0.07,0.14,0.1,0.22
		c0.06,0.18,0.09,0.37,0.09,0.55c0.85,3.37,2.11,6.71,3.48,10.05c0.08,0.14,0.15,0.29,0.18,0.45c0.38,0.91,0.76,1.83,1.14,2.74
		c1.06,2.52,2.12,5.05,3.05,7.59c3.01,8.18,6.57,14.91,10.67,20.04c4.41,5.52,9.47,9.19,15.17,10.82c5.7,1.63,12.11,1.23,19.23-1.4
		c0.66-0.24,1.32-0.5,1.99-0.78c0.33-0.43,0.87-0.66,1.4-0.61c5.36-2.42,11.08-6.03,17.18-10.89c5.06-4.91,9.05-9.65,12.05-14.21
		c0.03-0.05,0.06-0.1,0.09-0.15c1.01-1.54,1.9-3.06,2.68-4.57c3.49-6.73,4.7-13.04,3.79-18.9c-0.9-5.86-3.91-11.33-8.83-16.4
		C466.22,371.96,458.88,367.22,452.67,364L452.67,364z M461.75,365.56c-0.24-0.45-0.47-0.88-0.71-1.32
		c-0.33-0.59-0.68-1.19-1.07-1.79c-2.68-4.17-6.32-7.69-10.44-9.51c-3.39-1.49-7.13-1.81-10.95-0.35c2.86,1.42,5.68,3.05,8.51,4.68
		c2.31,1.33,4.62,2.66,7.03,3.91C456.84,362.6,459.39,364.06,461.75,365.56L461.75,365.56z M377.02,515.7L377.02,515.7
		c0.98-1.17,1.9-2.32,2.75-3.45c0.71-0.95,1.38-1.91,2.01-2.86c-0.51-2.43-0.64-4.89-0.38-7.24c0.62-5.54,3.41-10.45,8.63-13.02
		c3.01-17.31-3.43-34-9.1-48.71c-2.91-7.54-5.62-14.58-6.83-21.02c-1.11-5.92-0.9-12.29,1.27-17.52c1.71-4.13,4.63-7.55,9.03-9.52
		c-0.55-2.51-0.87-5.04-0.85-7.6c-5.49,0.21-12.22,2.85-17.51,8.07c-4.57,4.52-8.03,10.99-8.62,19.53
		c-0.51,7.47,0.88,15.59,2.43,24.65c3.29,19.24,7.3,42.62-4.1,73.82c-2.98,8.16-3.77,13.46-3.02,16.48
		c0.35,1.42,1.08,2.21,2.08,2.46c1.24,0.32,2.96,0,5-0.83C364.7,526.92,370.97,522.08,377.02,515.7L377.02,515.7z M385.2,395.48
		c-3.32,1.64-5.56,4.35-6.91,7.61c-1.92,4.63-2.1,10.35-1.09,15.72c1.16,6.17,3.82,13.07,6.67,20.46c5.63,14.6,12,31.12,9.56,48.61
		c0.73-0.2,1.45-0.41,2.17-0.64c0.09-0.26,0.19-0.53,0.29-0.81c0.16-0.47,0.33-0.98,0.51-1.53c7.7-24.49,1.3-42.16-3.94-56.63
		c-1.75-4.84-3.38-9.33-4.35-13.69c-0.51-2.3-0.7-4.3-0.62-6.04c0.07-1.69,0.38-3.13,0.87-4.36
		C387.15,401.3,386.05,398.4,385.2,395.48L385.2,395.48z M440.55,447.07c-7.23,2.42-13.82,2.69-19.79,0.98
		c-6.35-1.81-11.94-5.85-16.77-11.9c-4.33-5.42-8.05-12.44-11.17-20.92c-0.68-1.86-1.43-3.7-2.2-5.54c0.03,1.24,0.21,2.64,0.56,4.22
		c0.92,4.12,2.52,8.53,4.24,13.29c5.41,14.93,12.01,33.15,3.99,58.65l-0.02,0.05c8.23-3.22,15.28-8.04,21.19-13.39
		C430.08,463.92,436.67,453.97,440.55,447.07L440.55,447.07z M469.06,522.6c-9.11,11.95-15.4,15.68-32.24,25.65l-4.32,2.56
		c-6.08,3.61-7.87,9.14-6.76,14.69c0.65,3.28,2.3,6.59,4.65,9.54c2.38,2.98,5.48,5.59,9.03,7.46c8.09,4.26,18.53,4.57,27.94-3.63
		c6.44-5.61,12.16-13.78,16.96-22.26c4.37-7.72,7.96-15.68,10.62-22.21c-10.08-0.18-17.5-3.51-22.89-8.56
		C470.97,524.82,469.98,523.74,469.06,522.6L469.06,522.6z M445.46,421.78c0.49,0.16,1.5,0.31,2.69,0.24
		c1.28-0.08,2.67-0.45,3.52-1.44c0.18-0.21,0.34-0.46,0.47-0.73c0.38-0.79,1.32-1.12,2.11-0.74c0.79,0.38,1.12,1.32,0.74,2.11
		c-0.26,0.54-0.57,1.01-0.92,1.42c-1.52,1.78-3.74,2.43-5.74,2.55c-0.72,0.04-1.42,0.01-2.06-0.06c-0.01,0.64-0.07,1.35-0.2,2.05
		c-0.37,1.97-1.29,4.09-3.25,5.37c-0.44,0.29-0.95,0.54-1.53,0.73c-0.83,0.27-1.72-0.18-2-1c-0.27-0.83,0.18-1.72,1-2
		c0.28-0.09,0.54-0.22,0.78-0.38c1.09-0.72,1.63-2.05,1.87-3.31c0.22-1.16,0.19-2.19,0.1-2.7c-1.32-1.38-5.36-6.05-7.18-8.15
		c-3.37,1.72-8.39,1.23-8.41,1.23c-0.87-0.09-1.5-0.87-1.41-1.73c0.09-0.87,0.87-1.5,1.74-1.41c0.01,0,5.21,0.52,7.33-1.35
		c2.12-1.87,2.26-7.09,2.26-7.1c0.02-0.87,0.74-1.56,1.62-1.54c0.87,0.02,1.56,0.74,1.54,1.62c0,0.02-0.14,5.06-2.27,8.19
		C440.14,415.71,444.26,420.33,445.46,421.78L445.46,421.78z M500.46,215.99l-4.25,7.36h14.51l-4.25-7.36c-1,0.06-2,0.09-3,0.09
		C502.46,216.08,501.46,216.05,500.46,215.99L500.46,215.99z M552.32,73.33c-12.27-12.66-29.61-19.53-48.86-19.53
		c-19.25,0-36.6,6.87-48.86,19.53c-11.5,11.87-18.56,28.86-18.56,50.11c0,22.71,8.05,45.79,20.98,62.85
		c12.1,15.97,28.47,26.63,46.44,26.63c17.97,0,34.34-10.65,46.44-26.63c12.93-17.06,20.98-40.14,20.98-62.85
		C570.88,102.19,563.82,85.2,552.32,73.33L552.32,73.33z M620.26,204.46c0.04,0.02,0.09,0.04,0.13,0.06c1.11,0.5,2.24,0.95,3.4,1.37
		l0.01,0c1.18,0.42,2.36,0.78,3.56,1.1l0.04,0.01l0.01,0c16.51,4.36,34.62-0.76,50.57-11.69c17.24-11.82,31.91-30.41,39.28-51.2
		l0-0.01c7.34-20.69,6.06-39.63-1.45-54.94c-7.5-15.3-21.24-27-38.81-33.24c-18.14-6.43-36.79-5.76-52.58,2.07
		c-14.81,7.34-27.14,21-34.24,41.02c-7.59,21.41-7.72,45.85-1.24,66.25C594.56,183,605.2,197.65,620.26,204.46L620.26,204.46z
		 M619.94,207.78l-6.47,5.52l6.81,2.42l0.04,0.01l6.82,2.42l-1.54-8.36c-0.92-0.26-1.84-0.56-2.75-0.88
		c-0.08-0.02-0.15-0.05-0.22-0.08C621.72,208.5,620.82,208.15,619.94,207.78L619.94,207.78z"/>
	<path class="st8" d="M618.85,111.96l14.1,4.77l17.17-11.05l-14.77-3.62L618.85,111.96L618.85,111.96z M641.86,119.05l24.71,6.06
		l-9.17-16.05L641.86,119.05L641.86,119.05z M675.56,127.17l14.72,2.29l-10.06-16.41l-14.79-3.62L675.56,127.17L675.56,127.17z
		 M699.79,132.04c0.46,0.68,0.68,1.53,0.54,2.41c-0.16,1.03-0.77,1.88-1.6,2.39l-54.64,37.86c-0.14,0.11-0.28,0.21-0.43,0.29
		l-0.02,0.01l-0.02,0.01l-0.05,0.02l-0.02,0.01c-0.11,0.06-0.22,0.11-0.34,0.15l-0.02,0.01c-0.08,0.03-0.15,0.05-0.23,0.08
		l-0.02,0.01h0l-0.02,0.01l-0.05,0.01h0l-0.03,0.01l-0.03,0.01l-0.02,0.01h0l-0.03,0.01l-0.03,0.01l-0.02,0.01l0,0l-0.03,0.01
		l-0.03,0l-0.02,0l-0.01,0c-0.18,0.04-0.37,0.06-0.56,0.06l0,0l-0.07,0l-0.01,0l-0.06,0c-0.09,0-0.18,0-0.27-0.01l0,0l-0.13-0.02
		l-0.03,0l-0.04-0.01c-0.53-0.08-1.04-0.29-1.5-0.64c-0.42-0.31-0.74-0.7-0.97-1.13l0,0l-31.16-59.23c-0.21-0.4-0.33-0.82-0.37-1.24
		l0-0.01c-0.03-0.33-0.01-0.67,0.05-0.99l0-0.03l0.01-0.05c0.02-0.08,0.04-0.17,0.07-0.25h0c0.06-0.19,0.14-0.38,0.23-0.56
		l0.01-0.02l0.03-0.05l0.01-0.02l0.03-0.06c0.28-0.48,0.68-0.9,1.19-1.2l23.97-14.38c0.89-0.53,1.91-0.61,2.82-0.31l23.3,5.71
		l0.01,0l0.06,0.01l0,0l0.01,0l0.06,0.01l0.01,0l0,0l0.08,0.02l0.01,0c0.07,0.02,0.14,0.04,0.21,0.06l23.56,5.77
		c0.9,0.22,1.63,0.78,2.09,1.52L699.79,132.04L699.79,132.04z M688.1,135.98l-13.19-2.06l-17.61,23.4L688.1,135.98L688.1,135.98z
		 M667.64,132.32l-30.05-7.36l6.43,38.74L667.64,132.32L667.64,132.32z M630.4,123.02l-12.63-4.27l17.42,33.12L630.4,123.02
		L630.4,123.02z"/>
	<path class="st7" d="M332.55,703.24c2.47,9.21,14.48,48.63,42.22,60.09c18.63-1.77,32.28-13.23,36.58-17.28
		c-6.89-4.12-31.09-20.31-37.75-48.08C358.1,702.66,338.8,703.19,332.55,703.24L332.55,703.24z M373.95,766.41
		c-33.25-13.4-44.94-64.26-44.98-64.4l-0.46-1.96l2.03,0.02c0.07,0,25.29,0.42,43.75-5.64l1.67-0.55l0.36,1.73
		c6.75,32.11,38.28,48.64,38.37,48.69l1.82,0.97l-1.41,1.5c-0.05,0.05-16.35,17.64-40.43,19.74l-0.37,0.03L373.95,766.41
		L373.95,766.41z"/>
	<path class="st9" d="M375.24,386.69c-0.08,1.86-0.49,3.85-1.39,5.87c-4.05,9.04-10.71,16.42-4.28,39.74
		c6.42,23.32,28.43,73.24-12.19,97.42c0.75-0.16,1.57-0.42,2.45-0.78c4.89-2.01,11.15-6.86,17.21-13.23l0,0
		c0.98-1.16,1.9-2.32,2.74-3.45c0.71-0.95,1.38-1.91,2.01-2.86c-0.51-2.43-0.64-4.89-0.38-7.24c0.62-5.54,3.41-10.45,8.63-13.02
		c3.01-17.31-3.43-34-9.1-48.71c-2.91-7.54-5.62-14.58-6.83-21.02c-1.11-5.92-0.9-12.29,1.27-17.52c1.71-4.13,4.63-7.55,9.03-9.52
		c-0.55-2.51-0.87-5.04-0.85-7.6C380.96,384.86,378.1,385.5,375.24,386.69L375.24,386.69z"/>
	<path class="st10" d="M332.55,703.24c2.47,9.21,14.48,48.63,42.22,60.09c18.63-1.77,32.28-13.23,36.58-17.28
		c-6.89-4.12-31.09-20.31-37.75-48.08C358.1,702.66,338.8,703.19,332.55,703.24L332.55,703.24z"/>
	<path class="st11" d="M332.55,703.24c2.47,9.21,14.48,48.63,42.22,60.09c17.83-1.69,31.1-12.26,35.98-16.72
		c-39.5-3.15-60.17-27.57-69.61-43.64C337.42,703.17,334.41,703.22,332.55,703.24L332.55,703.24z"/>
	<path class="st12" d="M272,563.38c0.56-0.48,1.74-0.01,2.62,1.04c0.89,1.05,1.15,2.29,0.59,2.76c-0.56,0.48-1.74,0.01-2.62-1.04
		C271.71,565.09,271.44,563.85,272,563.38L272,563.38L272,563.38z"/>
	<path class="st12" d="M437.58,378.14c0.53-0.51,1.73-0.12,2.69,0.87c0.95,0.99,1.29,2.21,0.76,2.72c-0.53,0.51-1.73,0.12-2.69-0.87
		C437.4,379.87,437.05,378.65,437.58,378.14L437.58,378.14L437.58,378.14z"/>
	<path class="st12" d="M401.46,410.28c0.6-0.43,1.73,0.12,2.54,1.23c0.81,1.11,0.98,2.36,0.38,2.8c-0.6,0.43-1.73-0.12-2.54-1.23
		C401.04,411.96,400.87,410.71,401.46,410.28L401.46,410.28L401.46,410.28z"/>
	<path class="st7" d="M352.29,739.23c-0.31-0.89-0.62-1.77-0.92-2.66c-0.34-0.98-0.95-2.88-1.85-5.68
		c-0.05-0.16-0.11-0.33-0.16-0.49c-0.03-0.09-0.03-0.14-0.02-0.16c1.12,0.01,2.24,0.02,3.37-0.03c0.03,0,0.15,0.15,0.35,0.44
		c0.2,0.3,0.46,0.68,0.76,1.13c0.31,0.45,0.52,0.75,0.64,0.92c0.48,0.68,0.96,1.37,1.44,2.03c-0.27-0.74-0.53-1.47-0.79-2.22
		c-0.07-0.19-0.19-0.54-0.37-1.06c-0.17-0.51-0.31-0.91-0.42-1.2c-0.04-0.11,0.2-0.19,0.73-0.23c0.16-0.01,0.39-0.03,0.68-0.05
		c0.29-0.02,0.46-0.04,0.53-0.05c0.12-0.02,0.25-0.03,0.37-0.05c0.05-0.01,0.08,0,0.09,0.02c0.4,1.04,0.96,2.54,1.67,4.46
		c0.47,1.28,0.95,2.55,1.43,3.82c0.02,0.1-0.07,0.17-0.26,0.21c-0.04,0.01-0.09,0.02-0.13,0.02c-0.17,0.03-0.42,0.08-0.75,0.15
		c-0.33,0.07-0.58,0.12-0.75,0.15c-0.48,0.09-0.97,0.15-1.45,0.22c-0.05-0.01-0.24-0.24-0.55-0.67c-0.33-0.47-0.82-1.16-1.47-2.09
		c-0.64-0.92-1-1.45-1.08-1.56c0.08,0.23,0.2,0.57,0.36,1.02c0.16,0.45,0.27,0.79,0.35,1.02c0.06,0.17,0.15,0.42,0.28,0.76
		c0.13,0.34,0.22,0.59,0.28,0.76c0.09,0.24,0.17,0.49,0.26,0.73c0.06,0.18,0.03,0.27-0.1,0.28c-0.76,0.07-1.51,0.14-2.26,0.18
		C352.46,739.32,352.37,739.27,352.29,739.23L352.29,739.23z M356.72,729.88c0,0.01,0.01,0.02,0.01,0.03
		C356.72,729.9,356.72,729.89,356.72,729.88L356.72,729.88z"/>
	<path class="st7" d="M359.05,733.96c-0.19-0.51-0.31-0.98-0.37-1.42c-0.06-0.44-0.05-0.83,0.01-1.15c0.06-0.32,0.17-0.62,0.32-0.89
		c0.15-0.27,0.33-0.5,0.53-0.69c0.2-0.18,0.43-0.35,0.69-0.49c0.26-0.15,0.51-0.26,0.75-0.35c0.24-0.09,0.49-0.17,0.75-0.22
		c0.19-0.04,0.38-0.08,0.57-0.1c0.19-0.03,0.41-0.04,0.65-0.06c0.25-0.02,0.49-0.01,0.73,0.03c0.23,0.04,0.47,0.09,0.71,0.17
		c0.23,0.08,0.46,0.2,0.68,0.37c0.22,0.16,0.41,0.36,0.57,0.6c0.06,0.09,0.23,0.36,0.44,0.81c0.05,0.1-0.05,0.19-0.25,0.26
		c-0.29,0.09-0.7,0.22-1.25,0.37c-0.55,0.15-0.96,0.25-1.23,0.32c-0.05,0-0.09-0.03-0.13-0.06c-0.04-0.04-0.08-0.08-0.1-0.12
		c-0.03-0.05-0.06-0.1-0.1-0.15c-0.04-0.05-0.08-0.1-0.13-0.13c-0.05-0.04-0.11-0.06-0.19-0.08c-0.08-0.01-0.18,0-0.28,0.02
		c-0.14,0.04-0.25,0.09-0.34,0.17c-0.09,0.08-0.15,0.16-0.19,0.25c-0.04,0.09-0.06,0.21-0.06,0.35c0,0.14,0.01,0.27,0.02,0.38
		c0.02,0.12,0.05,0.25,0.1,0.42c0.05,0.17,0.09,0.3,0.13,0.39c0.03,0.09,0.08,0.22,0.14,0.37c0.02,0.05,0.04,0.1,0.07,0.17
		c0.03,0.06,0.05,0.11,0.06,0.14c0.02,0.05,0.04,0.1,0.06,0.16c0.04,0.12,0.08,0.21,0.11,0.28c0.03,0.08,0.08,0.17,0.14,0.28
		c0.06,0.11,0.12,0.21,0.18,0.28c0.06,0.07,0.13,0.15,0.22,0.22c0.08,0.08,0.18,0.13,0.27,0.17c0.1,0.04,0.21,0.06,0.34,0.06
		c0.13,0,0.26-0.01,0.4-0.05c0.37-0.11,0.66-0.24,0.86-0.39c-0.08-0.21-0.17-0.42-0.25-0.64c-0.08,0.03-0.15,0.05-0.22,0.07
		c0,0,0,0.01,0.01,0.01c-0.12,0.04-0.24,0.08-0.36,0.11c-0.03,0.01-0.07,0.02-0.14,0.04c-0.06,0.02-0.12,0.04-0.16,0.05
		c-0.09-0.06-0.18-0.11-0.26-0.16c-0.19-0.49-0.38-0.98-0.57-1.46c-0.04-0.09-0.01-0.21,0.06-0.35c0.12-0.03,0.24-0.06,0.36-0.1
		c0.25-0.07,0.55-0.14,0.9-0.24c0.36-0.1,0.63-0.18,0.82-0.24c0.13-0.04,0.26-0.08,0.4-0.13c0.19-0.06,0.35-0.11,0.45-0.14
		c0.11-0.03,0.23-0.05,0.38-0.06c0.14-0.01,0.25,0,0.32,0.04c0.18,0.45,0.43,1.1,0.76,1.95c0.33,0.85,0.57,1.47,0.73,1.85
		c0.01,0.01,0.01,0.03,0.02,0.05c0.01,0.02,0.02,0.04,0.03,0.05c0.01,0.04,0.03,0.08,0.04,0.11c-0.06,0.18-0.38,0.43-0.96,0.76
		c-0.58,0.33-1.09,0.56-1.51,0.69c-0.05,0.01-0.09,0.03-0.13,0.04c-0.09,0.03-0.23,0.08-0.4,0.15c-0.18,0.07-0.31,0.13-0.41,0.15
		c-1.33,0.4-2.51,0.3-3.5-0.31C360.32,736.36,359.57,735.35,359.05,733.96L359.05,733.96z"/>
	<path class="st7" d="M378.55,728.49c0.03,0.05,0.07,0.14,0.13,0.24c0.06,0.11,0.11,0.21,0.17,0.31c0.05,0.1,0.11,0.21,0.17,0.33
		c0.06,0.13,0.11,0.24,0.14,0.35c0.04,0.11,0.06,0.21,0.08,0.32c0.02,0.1,0.01,0.19-0.01,0.27c-0.03,0.08-0.08,0.14-0.15,0.18
		c-0.77,0.47-1.54,0.94-2.3,1.38c-0.21-0.02-0.48-0.41-0.82-1.14c-0.12-0.27-0.27-0.59-0.44-0.97c-0.17-0.38-0.29-0.66-0.36-0.82
		c-0.05-0.11-0.1-0.22-0.15-0.33c-0.01-0.03-0.04-0.08-0.08-0.16c-0.04-0.08-0.07-0.14-0.08-0.18c0.07,0.53,0.19,1.26,0.38,2.21
		c0.18,0.95,0.31,1.58,0.35,1.9c0.02,0.1-0.13,0.23-0.4,0.38c-0.59,0.31-1.19,0.61-1.78,0.91c-0.22,0.11-0.38,0.13-0.45,0.03
		c-0.46-0.59-0.9-1.2-1.35-1.8c-0.14-0.18-0.28-0.38-0.43-0.58c-0.15-0.2-0.32-0.43-0.51-0.69c-0.19-0.26-0.33-0.45-0.43-0.58
		c0.41,1.07,0.73,1.88,0.96,2.43c0.12,0.29,0.25,0.57,0.37,0.85c0.17,0.38,0.29,0.67,0.38,0.86c0.01,0.08-0.01,0.13-0.06,0.15
		c-0.16,0.07-0.31,0.15-0.47,0.22c-0.2,0.09-0.49,0.22-0.87,0.39c-0.38,0.16-0.67,0.28-0.86,0.36c-0.18,0.08-0.28,0.08-0.31,0.02
		c-0.52-1.23-1.03-2.47-1.55-3.72c-0.52-1.25-1.03-2.51-1.54-3.79c-0.01-0.03-0.01-0.06-0.01-0.09c0-0.02,0.02-0.05,0.05-0.07
		c0.03-0.02,0.05-0.04,0.08-0.06c0.03-0.02,0.06-0.03,0.11-0.05c0.05-0.02,0.09-0.03,0.11-0.04c0.03-0.01,0.07-0.02,0.11-0.04
		c0.05-0.01,0.08-0.03,0.09-0.03c0.19-0.07,0.39-0.13,0.59-0.2c0.95-0.35,1.62-0.59,2.02-0.72c0.4-0.13,0.7-0.24,0.91-0.33
		c0.27,0.4,0.67,1.01,1.21,1.79c0.4,0.58,0.81,1.16,1.22,1.74c-0.3-1.43-0.6-2.85-0.89-4.27c0,0,0.01,0,0.04-0.01
		c0.03-0.01,0.05-0.01,0.06-0.02c0.36-0.17,0.89-0.42,1.58-0.77c0.7-0.35,1.23-0.64,1.58-0.83c0.25-0.13,0.49-0.27,0.74-0.39
		c0.1-0.05,0.18,0.02,0.26,0.18C377.57,726.56,378.38,728.16,378.55,728.49L378.55,728.49z"/>
	<path class="st7" d="M380.24,729.74c-0.4-0.86-0.65-1.51-0.83-1.92c-0.57-1.27-1.15-2.55-1.74-3.87c-0.11-0.25-0.22-0.43-0.28-0.56
		c-0.02-0.05-0.04-0.09-0.06-0.14c-0.07-0.13-0.13-0.23-0.17-0.32c-0.03-0.06-0.02-0.13,0.02-0.21c0.57-0.28,1.42-0.77,2.55-1.47
		c0.27-0.17,0.45-0.3,0.55-0.38c0.54,1.11,1.08,2.23,1.62,3.34c0.54,1.09,1.09,2.17,1.63,3.26
		C382.42,728.25,381.33,729.02,380.24,729.74L380.24,729.74z"/>
	<path class="st13" d="M465.1,114.44l14.86,0.83l13.6-15.23l-15.2,0.46L465.1,114.44L465.1,114.44z M489.17,115.13l25.43-0.76
		l-13.12-13.02L489.17,115.13L489.17,115.13z M523.81,113.96l14.8-1.72l-14.07-13.13l-15.22,0.46L523.81,113.96L523.81,113.96z
		 M548.47,112.18c0.63,0.53,1.06,1.29,1.16,2.18c0.12,1.04-0.24,2.02-0.9,2.73l-42.55,51.08c-0.1,0.14-0.22,0.28-0.34,0.4
		l-0.02,0.02l-0.02,0.02l-0.04,0.04l-0.02,0.02c-0.09,0.08-0.19,0.16-0.28,0.24l-0.02,0.02c-0.06,0.05-0.13,0.09-0.2,0.14
		l-0.02,0.01l0,0l-0.02,0.01l-0.04,0.03l0,0l-0.02,0.01l-0.02,0.01l-0.02,0.01l0,0l-0.02,0.01l-0.02,0.01l-0.02,0.01l0,0l-0.02,0.01
		l-0.02,0.01l-0.02,0.01l0,0c-0.17,0.08-0.34,0.15-0.52,0.21h0l-0.07,0.02l-0.01,0l-0.06,0.01c-0.09,0.02-0.17,0.04-0.26,0.06l0,0
		l-0.13,0.02l-0.03,0l-0.04,0c-0.53,0.06-1.08,0-1.61-0.21c-0.48-0.19-0.9-0.48-1.23-0.83l0,0l-45.84-48.76
		c-0.31-0.33-0.54-0.7-0.69-1.1l0-0.01c-0.12-0.31-0.19-0.64-0.22-0.97l0-0.03l0-0.06c0-0.09,0-0.17,0-0.26h0
		c0.01-0.2,0.03-0.4,0.07-0.6l0-0.02l0.01-0.06l0-0.02l0.02-0.06c0.14-0.54,0.42-1.05,0.82-1.48l19.26-20.26
		c0.71-0.75,1.68-1.1,2.64-1.05l23.98-0.72l0.01,0l0.06,0h0l0.01,0l0.06,0h0.01l0,0l0.08,0l0.01,0c0.07,0,0.15,0,0.22,0l24.24-0.73
		c0.93-0.03,1.78,0.32,2.42,0.91L548.47,112.18L548.47,112.18z M538.25,119.1l-13.26,1.54l-10.73,27.25L538.25,119.1L538.25,119.1z
		 M517.56,121.04l-30.93,0.93l16.55,35.62L517.56,121.04L517.56,121.04z M479.19,122.02l-13.31-0.74l25.64,27.27L479.19,122.02
		L479.19,122.02z"/>
</g>
</svg>
