<?xml version="1.0" encoding="utf-8"?>
<!-- Generator: Adobe Illustrator 24.0.0, SVG Export Plug-In . SVG Version: 6.00 Build 0)  -->
<svg version="1.1" id="Layer_1" xmlns="http://www.w3.org/2000/svg" xmlns:xlink="http://www.w3.org/1999/xlink" x="0px" y="0px"
	 viewBox="0 0 850.39 850.39" style="enable-background:new 0 0 850.39 850.39;" xml:space="preserve">
<style type="text/css">
	.st0{fill-rule:evenodd;clip-rule:evenodd;fill:#FC7D5A;}
	.st1{fill-rule:evenodd;clip-rule:evenodd;fill:#9E5DA1;}
	.st2{fill-rule:evenodd;clip-rule:evenodd;fill:#EB7277;}
	.st3{fill-rule:evenodd;clip-rule:evenodd;fill:#92899E;}
	.st4{fill-rule:evenodd;clip-rule:evenodd;fill:#70BF30;}
	.st5{fill-rule:evenodd;clip-rule:evenodd;fill:#C88A71;}
	.st6{fill-rule:evenodd;clip-rule:evenodd;fill:#F1A859;}
	.st7{fill-rule:evenodd;clip-rule:evenodd;fill:#AECD44;}
	.st8{fill-rule:evenodd;clip-rule:evenodd;fill:#FFFFAD;}
	.st9{fill:#999999;}
	.st10{fill:#666666;}
	.st11{fill-rule:evenodd;clip-rule:evenodd;fill:#1A1A1A;}
	.st12{fill-rule:evenodd;clip-rule:evenodd;fill:#FFFFFF;}
	.st13{fill:#1A1A1A;}
</style>
<g>
	<path class="st0" d="M122.71,210.63C53.84,258.61,95.09,317.95,86.02,389.9c-9.06,71.96-68.22,153.34-38.96,197.24
		c28.51,42.77,34.82,52.32,57.8,58.59c37.25,10.17,208.61,20.7,236.21,18.67c27.6-2.03,162.35-28,223.23-17.45
		c60.88,10.55,166.84,36.61,219.79-14.57s14.38-147.56-3.06-181.87c-17.44-34.31,18.67-117.7,26.79-163.16
		c8.12-45.46-30.04-112.02-120.14-92.54c-90.11,19.48-209.47,18.62-279.24,12.18C326.47,199.41,191.58,162.66,122.71,210.63
		L122.71,210.63z"/>
	<path class="st1" d="M796.15,231.34H99.92c5.75-7.12,13.2-14.03,22.79-20.71c68.87-47.98,203.76-11.22,285.73-3.65
		c69.78,6.45,189.14,7.31,279.24-12.18C742.95,182.86,778.66,203.28,796.15,231.34L796.15,231.34z"/>
	<path class="st2" d="M808.61,281.33H82.07c0.83-17.76,5.27-34.41,17.85-49.99h696.23C805.94,247.05,810.02,265.16,808.61,281.33
		L808.61,281.33z"/>
	<path class="st3" d="M86.09,340.45h707.82c-11.97,41.19-24.67,86.85-12.87,110.05c17.44,34.31,56.01,130.69,3.06,181.87
		S625.18,657.5,564.3,646.95c-60.88-10.55-195.63,15.42-223.23,17.45c-27.6,2.03-198.96-8.5-236.21-18.67
		c-22.98-6.28-29.29-15.82-57.8-58.59c-29.26-43.9,29.9-125.28,38.96-197.24C88.19,372.7,87.48,356.23,86.09,340.45L86.09,340.45z"
		/>
	<path class="st4" d="M65.28,463.55c41.26-6.32,96.34-10.95,133.61,0.63c66.56,20.69,87.67,12.42,214.3-6.21
		c126.63-18.62,201.9,55.16,283.89,21.02c47.38-19.73,70.75-21.4,88.98-18.04c18.5,40.5,46.32,124.75-1.97,171.42
		c-52.96,51.18-158.91,25.12-219.79,14.57c-60.88-10.55-195.63,15.42-223.23,17.45c-27.6,2.03-198.96-8.5-236.21-18.67
		c-22.98-6.28-29.29-15.82-57.8-58.59C27.59,557.93,47.26,512.13,65.28,463.55L65.28,463.55z"/>
	<path class="st5" d="M776.89,435.83H75.03c5.01-15.44,9.09-30.89,10.99-45.93c0.07-0.59,0.14-1.17,0.2-1.76h695.05
		C777.42,405.9,775.26,422.54,776.89,435.83L776.89,435.83z"/>
	<path class="st6" d="M781.28,388.14H86.22c1.91-16.56,1.21-32.46-0.14-47.69h707.82C789.34,356.2,784.66,372.59,781.28,388.14
		L781.28,388.14z"/>
	<path class="st6" d="M787.16,364.3H87.38c-0.09-8.12-0.61-16.07-1.29-23.85h707.82C791.63,348.3,789.33,356.31,787.16,364.3
		L787.16,364.3z"/>
	<path class="st7" d="M62.71,470.44c41.52-6.52,98.13-11.59,136.18,0.24c66.56,20.69,87.67,12.42,214.3-6.21
		c126.63-18.62,201.9,55.17,283.89,21.02c50.15-20.88,73.4-21.53,92.13-17.4c18.2,42.6,40.49,120.21-5.12,164.29
		c-52.96,51.18-158.91,25.12-219.79,14.57c-60.88-10.55-195.63,15.42-223.23,17.45c-27.6,2.03-198.96-8.5-236.21-18.67
		c-22.98-6.28-29.29-15.82-57.8-58.59C28.51,559.31,45.49,516.43,62.71,470.44L62.71,470.44z"/>
	<path class="st4" d="M62.71,470.44c38.96-6.12,91.21-10.96,128.94-1.76c-0.42-0.02-106.78-5.57-131.09,32.5
		c-24.35,38.15-19.89,73.46,8.52,102.69s90.1,31.66,115.67,14.21c25.57-17.45,22.12-43.72,22.12-43.72s86.65-1.74,91.12-2.15
		c4.46-0.41,35.58-2.82,35.58-2.82s3.47,59.76,15.65,64.23c12.18,4.46,10.78-64.04,10.78-64.04l83.27-5.09l57.01,6.42
		c0,0,8.34,49.3,14.43,54.98c6.09,5.68,11.99-52.34,11.99-52.34s56.21,0.27,66.76,0.27c10.55,0,73.44-0.4,73.44-0.4
		s15.46,45.12,64.15,52.36s69.84-43.61,78.04-89.56c4.96,34.45,1.17,70.83-25.03,96.15c-52.96,51.18-158.91,25.12-219.79,14.57
		c-60.88-10.55-195.63,15.42-223.23,17.45c-27.6,2.03-198.96-8.5-236.21-18.67c-22.98-6.28-29.29-15.82-57.8-58.59
		C28.51,559.31,45.49,516.43,62.71,470.44L62.71,470.44z"/>
	<path class="st8" d="M425.75,244.99c47,0,85.1,38.1,85.1,85.1c0,3.26-0.18,6.47-0.54,9.63c-16.71-1.56-42.11-2.07-39.24,2.6
		c2.11,3.43,15.02,5.88,26.02,7.37c-17.71-1.83-39.05-2.99-62.34-3.17c-33.41-0.25-66.56,2.43-91.14,5.87l-0.2-0.76
		c0,0,38.46-2.99,42.24-9.14c3.19-5.18-28.43-3.98-44.37-2.05c-0.41-3.39-0.63-6.85-0.63-10.35
		C340.65,283.1,378.75,244.99,425.75,244.99L425.75,244.99z"/>
	<path class="st8" d="M547.62,362.04c1.25-8.86-48.31-16.92-112.87-17.4c-65.3-0.49-129.65,10.23-130.86,15.92
		c-2.41,11.31,108.85-6.02,108.85,1.07c0,7.09-42.52,1.23-45.46,8.74c-2.94,7.52,70.39,0.9,67.8,8.89c-2.58,8-54.57,1.48-56.38,9.25
		c-1.82,7.77,40.25,4.41,48.83,8.33c8.57,3.92-17.57,2.56-18.96,7.5c-1.39,4.94,53.53,4.92,54.25-1.21
		c0.72-6.14-17.49-3.29-21.49-7.49c-4-4.2,31.35,0.37,34.35-5.85c2.99-6.22-22.58-3.9-21.51-10.5c1.07-6.6,39.97,1.57,44.51-5.69
		c4.54-7.26-50.67-4.15-49.97-12.62S546.88,367.3,547.62,362.04L547.62,362.04z M426.07,359.36c4.09,0.08,7.26,1.42,7.08,3
		c-0.18,1.58-3.63,2.79-7.72,2.71c-4.09-0.08-7.26-1.42-7.08-3S421.98,359.28,426.07,359.36L426.07,359.36z"/>
	<path class="st8" d="M351.12,368.82c6.51-0.13,11.56,1.05,11.28,2.63s-5.79,2.98-12.3,3.11c-6.51,0.13-11.56-1.05-11.28-2.64
		C339.1,370.35,344.61,368.95,351.12,368.82L351.12,368.82z"/>
	<path class="st8" d="M494.78,386.82c4.64,0.18,8.09,1.62,7.72,3.21c-0.37,1.59-4.43,2.73-9.06,2.54c-4.63-0.18-8.09-1.62-7.72-3.21
		C486.09,387.77,490.15,386.63,494.78,386.82L494.78,386.82z"/>
	<path class="st8" d="M431.78,411.65c6.18,0.08,10.96,1.42,10.7,3c-0.27,1.58-5.5,2.79-11.67,2.71c-6.18-0.08-10.96-1.42-10.7-3
		C420.38,412.79,425.61,411.57,431.78,411.65L431.78,411.65z"/>
	<path class="st8" d="M86.09,340.45h707.82c0.89-3.07,1.78-6.12,2.65-9.13H85.22C85.52,334.34,85.82,337.38,86.09,340.45
		L86.09,340.45z"/>
	<polygon class="st8" points="183.15,382.52 218.73,384.32 254.3,386.12 218.73,387.91 183.15,389.72 147.57,387.91 111.99,386.12 
		147.57,384.32 183.15,382.52 	"/>
	<polygon class="st8" points="224.55,355.47 260.12,357.27 295.7,359.07 260.12,360.87 224.55,362.67 188.97,360.87 153.39,359.07 
		188.97,357.27 224.55,355.47 	"/>
	<polygon class="st6" points="584.96,394.54 620.54,396.34 656.12,398.14 620.54,399.94 584.96,401.74 549.38,399.94 513.81,398.14 
		549.38,396.34 584.96,394.54 	"/>
	<polygon class="st8" points="722.96,357.1 758.54,358.9 788.23,360.4 788.06,361 758.54,362.5 722.96,364.3 687.38,362.5 
		651.8,360.7 687.38,358.9 722.96,357.1 	"/>
	<path class="st6" d="M750.56,402.66l27.71,1.4c-0.23,1.49-0.44,2.97-0.64,4.43l-27.08,1.37l-35.58-1.8l-35.58-1.8l35.58-1.8
		L750.56,402.66L750.56,402.66z"/>
	<path class="st6" d="M108.47,414.83l35.58,1.8l35.58,1.8l-35.58,1.8l-35.58,1.8l-28.82-1.46c0.4-1.45,0.79-2.9,1.16-4.34
		L108.47,414.83L108.47,414.83z"/>
	<polygon class="st6" points="303.42,414.15 339,415.95 374.58,417.75 339,419.55 303.42,421.35 267.84,419.55 232.27,417.75 
		267.84,415.95 303.42,414.15 	"/>
	<polygon class="st5" points="155.9,443.66 178.57,445.46 201.22,447.26 178.57,449.06 155.9,450.86 133.25,449.06 110.59,447.26 
		133.25,445.46 155.9,443.66 	"/>
	<polygon class="st5" points="720.19,451.08 742.85,452.88 765.51,454.68 742.85,456.48 720.19,458.28 697.53,456.48 674.87,454.68 
		697.53,452.88 720.19,451.08 	"/>
	<path class="st9" d="M208.42,559.51c1.47,0.88,3.11,1.48,4.81,1.83c1.77,0.37,3.62,0.46,5.44,0.3c-0.07,0.65-0.13,1.29-0.18,1.93
		c-1.08,13.54,1.56,22.78,6.88,29.03c-14.42,0.36-22.84-4.94-26.76-11.48c-1.9-3.17-2.74-6.63-2.71-9.86
		c0.04-3.18,0.94-6.13,2.54-8.33C200.6,559.99,204.06,558.4,208.42,559.51L208.42,559.51z"/>
	<path class="st10" d="M218.47,563.9c-0.26-0.6,1.46-2.61,1.14-3.1c-0.75-1.15-3.66-0.53-4.66-1.14
		c-2.48,5.31-1.63,19.36-9.91,18.15c-9.19-1.34-7.29-13.77-7.28-13.8c-0.75,1.32-1.29,2.85-1.58,4.49
		c-0.53,2.96-0.27,6.29,0.94,9.49c1.21,3.22,3.38,6.33,6.66,8.84c4.73,3.62,11.77,6.01,21.61,5.76
		C220.1,586.41,217.46,577.27,218.47,563.9L218.47,563.9z"/>
	<path class="st9" d="M344.02,553.91c-0.26,0.09-0.52,0.17-0.79,0.25c-0.96,0.27-2,0.45-3.12,0.53c-6.7,0.5-13.03-0.27-18.86-2.05
		c-6.11-1.86-11.68-4.82-16.53-8.55c-1.95-6.94-4.46-13.72-7.11-19.97c-4.7-11.08-9.83-20.48-13.11-26.1
		c1.14-0.45,2.22-0.93,3.24-1.44c2.41,2.48,4.72,5.62,7.17,8.93c9.24,12.5,20.27,27.4,45.64,22.51c-0.27,0.36-0.53,0.73-0.77,1.13
		c-1.23,2.03-2.02,4.56-2.31,7.25c-0.29,2.66-0.09,5.5,0.65,8.21C339.12,548.2,341.04,551.54,344.02,553.91L344.02,553.91z"/>
	<path class="st10" d="M345.06,526.17c-0.12,0.18-0.24,0.37-0.36,0.56c-1.23,2.03-2.02,4.56-2.31,7.25
		c-0.29,2.66-0.09,5.5,0.65,8.21c1.07,3.93,0.34,9.99,3.83,12.37c-0.4,0.06-6.33,0.1-6.76,0.14c-6.7,0.5-13.04-0.28-18.88-2.06
		c-6.11-1.86-11.67-4.81-16.52-8.54c-1.95-6.94-4.46-13.72-7.11-19.98c-4.7-11.08-9.83-20.48-13.11-26.1
		c1.14-0.45,2.22-0.93,3.24-1.44c2.4,2.48,4.71,5.6,7.16,8.89c0.56,0.76,1.13,1.53,1.71,2.3c4.18,9.79,7.72,21.02,11.08,26.31
		c5.52,8.7,21.08,15.05,21.41,8.7c0.23-4.3,2.54-10.42,4.01-13.92C334.25,528.82,343.86,526.3,345.06,526.17L345.06,526.17z"/>
	<path class="st10" d="M254.63,593.06c2.49-2.84,5.72-4.77,8.83-4.77s6.34,1.93,8.83,4.77c2.54,2.89,4.26,6.7,4.26,10.36
		c0,3.41-1.32,6.08-3.46,7.92c-2.38,2.05-5.8,3.13-9.63,3.13s-7.24-1.08-9.63-3.13c-2.15-1.84-3.46-4.51-3.46-7.92
		C250.38,599.75,252.1,595.95,254.63,593.06L254.63,593.06z"/>
	<path class="st9" d="M308.42,563.9c0.26-0.6,0.55-1.15,0.87-1.63c1.82-2.79,4.6-3.8,7.36-3.93c2.91-0.14,5.82,0.66,7.7,1.42
		c0.74,0.3,1.29,0.58,1.6,0.78c2.49,1.62,4.16,4.55,4.78,7.99c0.53,2.96,0.27,6.29-0.94,9.49c-1.21,3.22-3.38,6.33-6.66,8.84
		c-4.73,3.62-11.77,6.01-21.61,5.76C306.79,586.41,309.43,577.27,308.42,563.9L308.42,563.9z"/>
	<path class="st9" d="M219,558.93c-1.75,0.21-3.54,0.15-5.24-0.2c-1.4-0.29-2.73-0.77-3.92-1.47c-0.1-0.08-0.21-0.15-0.33-0.2
		c-0.55-0.35-1.07-0.74-1.55-1.18c-1.57-1.46-2.73-3.46-3.21-6.07c-0.38-2.06-0.33-4.49,0.25-7.33c1.76-8.52,6.11-17.89,11.88-26.43
		c5.6-8.29,12.53-15.77,19.72-20.88c1.73,1.07,3.65,2.03,5.77,2.86c-3.28,5.62-8.42,15.02-13.12,26.11
		C224.74,534.8,220.63,547.03,219,558.93L219,558.93z"/>
	<path class="st10" d="M219,558.93c-1.75,0.21-3.54,0.15-5.24-0.2c-1.4-0.29-2.73-0.77-3.92-1.47c-0.1-0.08-0.21-0.15-0.33-0.2
		c-0.55-0.35-1.07-0.74-1.55-1.18c-1.57-1.46-2.73-3.46-3.21-6.07c-0.22-1.21-0.3-2.56-0.2-4.05c3.36,4.28,8.32,4.97,11-1.59
		c3.35-8.2,14.05-27.77,17.06-36.96c1.26-3.86,0.9-6.84,0.06-9c1.3-1.09,2.81-3.21,4.13-4.15c1.73,1.07,4.66,2.13,6.77,2.96
		c-3.28,5.62-9.62,16.02-14.32,27.11C224.74,534.8,220.63,547.03,219,558.93L219,558.93z"/>
	<path class="st9" d="M221.46,560.79c0.17-0.27,0.25-0.61,0.19-0.96c-0.01-0.06-0.03-0.12-0.04-0.18
		c1.55-11.76,5.63-23.9,10.12-34.51c4.75-11.21,10.41-24.04,13.64-29.55c5.13,1.67,11.13,4.42,18.32,4.76h0.14
		c7.18-0.35,13,0.23,18.13-1.43c3.23,5.51,8.46,15.01,13.21,26.22c2.63,6.2,5.11,12.92,7.03,19.79c0.01,0.18,0.06,0.35,0.14,0.51
		c1.68,6.1,2.91,12.3,3.39,18.33c1.03,12.89-1.43,21.55-6.4,27.26c-4.73,5.43-11.81,8.28-20.35,9.63c-0.63-3.41-2.35-6.73-4.67-9.37
		c-2.97-3.39-6.93-5.69-10.84-5.69s-7.87,2.3-10.84,5.69c-2.32,2.64-4.04,5.97-4.67,9.38c-8.56-1.34-15.65-4.19-20.39-9.63
		c-4.97-5.71-7.43-14.36-6.4-27.26C221.24,562.79,221.34,561.8,221.46,560.79L221.46,560.79z"/>
	<path class="st10" d="M308.42,563.9c0.26-0.6,0.55-1.15,0.87-1.63c0.75-1.15,1.66-1.99,2.66-2.6c2.48,5.31,1.63,19.36,9.91,18.15
		c9.19-1.34,7.29-13.77,7.28-13.8c0.75,1.32,1.29,2.85,1.58,4.49c0.53,2.96,0.27,6.29-0.94,9.49c-1.21,3.22-3.38,6.33-6.66,8.84
		c-4.73,3.62-11.77,6.01-21.61,5.76C306.79,586.41,309.43,577.27,308.42,563.9L308.42,563.9z"/>
	<path class="st10" d="M302.2,544.94c0.01,0.18,0.06,0.36,0.14,0.52c1.68,6.12,2.91,12.32,3.39,18.33
		c1.03,12.89-1.43,21.55-6.4,27.26c-4.73,5.43-11.81,8.28-20.35,9.63c-0.5-2.75-1.73-5.44-3.39-7.77c47.49-3.94,6.25-94.5,6.25-94.5
		C289.44,511.41,298,529.91,302.2,544.94L302.2,544.94z M251.35,592.91c-1.67,2.33-2.89,5.02-3.4,7.77
		c-8.56-1.34-15.65-4.19-20.39-9.63c-4.97-5.71-7.43-14.36-6.4-27.26c0.48-6.04,1.21-15.75,2.89-21.85
		c0.08-0.16,1.43-3.24,1.45-3.42c1.92-6.87,3.6-7.17,6.23-13.37c4.61-10.88,9.68-20.16,12.93-25.73
		C240.31,509.35,206.82,589.21,251.35,592.91L251.35,592.91z"/>
	<path class="st9" d="M256.97,592.58c1.83-2.09,4.21-3.51,6.5-3.51c2.28,0,4.67,1.42,6.49,3.51c1.87,2.13,3.13,4.93,3.13,7.62
		c0,2.51-0.97,4.47-2.55,5.83c-1.75,1.5-4.27,2.3-7.08,2.3s-5.33-0.79-7.08-2.3c-1.58-1.36-2.55-3.32-2.55-5.83
		C253.84,597.51,255.11,594.71,256.97,592.58L256.97,592.58z"/>
	<path class="st9" d="M231.58,431.26c-3.77-0.86-8.05-0.93-12.36,0.24c-4.5,1.22-9.01,3.81-12.96,8.26
		c-4.36,4.91-7.76,11.31-11.55,18.44c-8.04,15.13-17.81,33.52-42.49,49.08c-7.22,4.55-10.61,8.06-11.24,10.61
		c-0.32,1.29,0.29,2.34,1.58,3.12c1.63,0.99,4.22,1.62,7.44,1.89c12.02,1.01,31.98-3.05,44.44-11.73c0.83-0.57,1.57-1.11,2.24-1.61
		c0.5-0.38,1-0.76,1.49-1.16c0.95-4.77,1.55-9.43,2.17-14.12c1.25-9.57,2.51-19.27,6.63-30.26c2.8-7.48,7.59-12.44,12.89-15.42
		c0.27-0.87,0.58-1.72,0.9-2.55C223.2,439.88,227.04,434.99,231.58,431.26L231.58,431.26z"/>
	<path class="st10" d="M231.58,431.26c-3.77-0.86-8.05-0.93-12.36,0.24c-0.56,0.15-1.13,0.33-1.69,0.53
		c-13.08,10.95-16.71,27.19-17.75,32.37c-1.17,5.85-9.03,37.3-25.09,45.49c-10.32,5.27-24.73,7.22-33.7,7.94l-0.01,0.05
		c-0.32,1.29,0.29,2.34,1.58,3.12c1.63,0.99,4.22,1.62,7.44,1.89c12.02,1.01,31.98-3.05,44.44-11.73c0.83-0.57,1.57-1.11,2.24-1.61
		c0.5-0.38,1-0.76,1.49-1.16c0.95-4.77,1.55-9.43,2.17-14.12c1.25-9.57,2.51-19.27,6.63-30.26c2.8-7.48,7.59-12.44,12.89-15.42
		c0.27-0.87,0.58-1.72,0.9-2.55C223.2,439.88,227.04,434.99,231.58,431.26L231.58,431.26z"/>
	<path class="st9" d="M236.09,431.23l-0.01,0.04c-0.2,0.56-0.74,0.9-1.3,0.88c-4.86,3.58-9,8.47-11.52,14.83
		c6.25-2.47,12.8-2.48,17.46-0.82c0.7,0.25,1.06,1.01,0.81,1.71c-0.25,0.7-1.01,1.06-1.71,0.81c-4.76-1.7-11.81-1.41-18.16,1.97
		c-5,2.66-9.55,7.25-12.19,14.3c-4.01,10.71-5.26,20.26-6.49,29.68c-0.6,4.62-1.2,9.2-2.11,13.89c0.16,0.45,0.06,0.97-0.27,1.33
		c-1.28,6.2-3.15,12.59-6.34,19.45c0.03,0.46-0.19,0.89-0.54,1.15c-2.56,5.31-5.92,10.91-10.41,16.93
		c-1.63,2.19-2.94,4.15-3.94,5.88c-1.04,1.8-1.77,3.35-2.22,4.69c-0.69,2.05-0.71,3.49-0.2,4.4c0.54,0.95,1.82,1.41,3.61,1.45
		c2.12,0.04,4.85-0.51,7.95-1.55c3.54-1.19,7.49-3.01,11.51-5.3l0.04-0.03c25.78-16.83,23.84-41.73,22.23-62.43
		c-0.55-7.06-1.06-13.65-0.46-19.39c0.55-5.25,2.33-10.55,5.47-14.39c2.74-3.36,6.48-5.62,11.31-5.83c0.73-0.03,1.36,0.54,1.39,1.28
		c0.03,0.74-0.54,1.36-1.28,1.39c-3.98,0.18-7.08,2.06-9.36,4.85c-2.79,3.42-4.38,8.2-4.88,12.98c-0.58,5.48-0.07,11.96,0.47,18.92
		c1.24,15.89,2.65,34.18-7.78,49.78c2.65-2.61,5.02-5.37,6.94-8.22c1.31-1.94,2.48-3.86,3.51-5.75c1.61-4.21,3.34-8.26,5.07-12.04
		c3.45-11.47,2.86-21.85,2.34-30.89c-0.26-4.52-0.5-8.72-0.22-12.6c0.15-2.05,0.5-3.78,1-5.23c0.57-1.66,1.35-2.95,2.24-3.94
		c0.49-0.55,1.34-0.59,1.89-0.1s0.59,1.34,0.1,1.89c-0.67,0.74-1.26,1.73-1.7,3.02c-0.42,1.22-0.72,2.72-0.85,4.55
		c-0.26,3.73-0.03,7.84,0.22,12.26c0.1,1.73,0.2,3.51,0.28,5.33c2.41,1.33,4.96,2.43,7.61,3.33l0.02,0l0.03,0.01l0,0
		c5.06,1.7,10.44,2.63,15.71,2.95c7.8,0.47,15.31-0.42,21.09-2.21c0.05-0.04,0.11-0.08,0.17-0.12c0.24-0.14,0.5-0.2,0.77-0.18
		c1.04-0.35,2.02-0.73,2.92-1.14c0.45-0.2,0.88-0.41,1.31-0.62c0.05-0.08,0.11-0.16,0.18-0.23c0.29-0.29,0.67-0.43,1.05-0.4
		c4.98-2.66,8.34-5.82,10.61-8.85c-0.82,0.27-1.71,0.53-2.59,0.72c-0.72,0.15-1.43-0.31-1.58-1.03c-0.15-0.72,0.31-1.43,1.03-1.58
		c2.27-0.49,4.61-1.48,5.49-1.87c2.13-4.2,2.34-7.55,2.36-8.02c0-0.15,0.02-0.31,0.08-0.46c0.05-0.14,0.09-0.28,0.13-0.43
		c-0.61,0-1.29-0.16-1.99-0.41c-1.9-0.68-4.13-2.19-4.98-3.03c-0.52-0.52-0.52-1.36,0-1.89c0.52-0.52,1.36-0.52,1.89,0
		c0.67,0.66,2.45,1.85,4,2.41c0.4,0.14,0.76,0.24,1.04,0.25l-0.02-0.2l-0.01-0.09c-0.37-1.79-1.23-3.9-2.35-6.12
		c-2.06-4.09-5.03-8.54-7.67-12.41c-0.54-0.8-1.12-1.67-1.72-2.57c-4.92-7.43-11.23-16.95-24.61-22.23
		c-0.46-0.18-0.94-0.35-1.45-0.5c-6.15-1.85-15.02-1.37-23.33,2.04C240.72,428.47,238.34,429.72,236.09,431.23L236.09,431.23z"/>
	<path class="st10" d="M236.09,431.23l-0.01,0.04c-0.2,0.56-0.74,0.9-1.3,0.88c-4.86,3.58-9,8.47-11.52,14.83
		c4.12-1.63,8.37-2.19,12.11-1.91h0c0,0-1-16.2,27.11-20.47c-5.68-0.71-12.68,0.15-19.33,2.87
		C240.72,428.47,238.34,429.72,236.09,431.23L236.09,431.23z M176.89,558.8c-0.43,1.61-0.38,2.77,0.06,3.55
		c0.54,0.95,1.82,1.41,3.61,1.45c2.12,0.04,4.85-0.51,7.95-1.55c3.54-1.19,7.49-3.01,11.51-5.3l0.04-0.03
		c25.78-16.83,23.84-41.73,22.23-62.43c-0.55-7.06-1.06-13.65-0.46-19.39c0.55-5.25,2.33-10.55,5.47-14.39l0.15-0.18
		c-1.26,0.05-2.67,0.5-4.25,1.45c-8.37,5.03-6.69,29.1-6.52,42.32c0.17,13.21,3.42,27.62-14.05,42.15
		C191.31,555.85,182.03,558.26,176.89,558.8L176.89,558.8z M230.42,461.22c-0.37,0.37-0.72,0.76-1.05,1.17
		c-2.79,3.42-4.38,8.2-4.88,12.98c-0.58,5.48-0.07,11.96,0.47,18.92c1.24,15.89,2.65,34.18-7.78,49.78
		c2.65-2.61,5.02-5.37,6.94-8.22c1.31-1.94,3.28-2.85,4.32-4.75c1.61-4.21,4.1-7.9,5.83-11.67c3.46-11.47,1.3-23.22,0.79-32.26
		c-0.26-4.52-0.5-8.72-0.22-12.6c0.13-1.83,0.42-3.4,0.84-4.75C234.73,466.31,233.09,462.7,230.42,461.22L230.42,461.22z
		 M237.39,476.66c-0.09,3.21,0.11,6.68,0.32,10.37c0.1,1.73,0.2,3.51,0.28,5.33c2.41,1.33,4.96,2.43,7.61,3.33l0.02,0l0.03,0.01l0,0
		c5.06,1.7,10.44,2.63,15.71,2.95c7.8,0.47,15.31-0.42,21.09-2.21c0.05-0.04,0.11-0.08,0.17-0.12c0.24-0.14,0.5-0.2,0.77-0.18
		c1.04-0.35,2.02-0.73,2.92-1.14c0.45-0.2,0.88-0.41,1.31-0.62c0.05-0.08,0.11-0.16,0.18-0.23c0.29-0.29,0.67-0.43,1.05-0.4
		c4.98-2.66,8.34-5.82,10.61-8.85c-0.82,0.27-1.71,0.53-2.59,0.72c-0.72,0.15-1.43-0.31-1.58-1.03c-0.15-0.72,0.31-1.43,1.03-1.58
		c2.27-0.49,4.61-1.48,5.49-1.87c2.13-4.2,2.34-7.55,2.36-8.02c0-0.15,0.02-0.31,0.08-0.46c0.05-0.14,0.09-0.28,0.13-0.43
		c-4.47,14.27-25.39,20.02-44.2,17.51C245.18,487.75,239.61,482.15,237.39,476.66L237.39,476.66z"/>
	<path class="st11" d="M276.79,457.51c1.96-0.13,3.71,2.31,3.92,5.45c0.2,3.14-1.22,5.79-3.18,5.91c-1.96,0.13-3.71-2.31-3.92-5.45
		C273.41,460.29,274.84,457.64,276.79,457.51L276.79,457.51z"/>
	<path class="st12" d="M276.63,459.47c0.84-0.05,1.59,0.99,1.67,2.33c0.09,1.34-0.52,2.47-1.36,2.53s-1.59-0.99-1.67-2.33
		C275.19,460.66,275.79,459.53,276.63,459.47L276.63,459.47z"/>
	<path class="st9" d="M566.27,439.61c1.68-4.62,3.64-9.03,6.7-12.64c-0.46-0.52-1.02-1.02-1.65-1.49c-2.76-2.05-6.9-3.48-11.52-3.63
		c-4.64-0.15-9.74,1-14.38,4.13c-2.34,1.58-4.56,3.66-6.54,6.33c-3.77,5.07-6.48,11.47-9.5,18.6c-3.58,8.44-7.58,17.88-14.3,27.55
		c5.07,7,11.63,14.06,20.58,20.87l0.21,0.16c14.58-13.32,17.89-27.88,20.62-39.91c0.96-4.24,1.86-8.18,3.14-11.69l0,0
		c0.88-2.4,1.91-4.19,3.04-5.52C563.81,441,565.04,440.14,566.27,439.61L566.27,439.61z"/>
	<path class="st9" d="M627.31,439.61c1.24,0.53,2.46,1.39,3.59,2.73c1.13,1.33,2.17,3.13,3.04,5.52v0
		c1.29,3.51,2.18,7.45,3.14,11.69c2.87,12.66,6.38,28.12,23,41.99c11.19,9.34,29.92,14.9,41.49,14.94c3.1,0.01,5.62-0.37,7.27-1.19
		c1.27-0.63,1.93-1.56,1.74-2.79c-0.38-2.49-3.33-6.12-9.83-11.07c-22.31-16.96-30.12-35.38-36.55-50.54
		c-3.02-7.13-5.74-13.53-9.5-18.6c-1.98-2.67-4.2-4.75-6.54-6.33c-4.63-3.13-9.73-4.28-14.38-4.13c-4.62,0.15-8.76,1.59-11.52,3.63
		c-0.63,0.47-1.18,0.97-1.65,1.49C623.67,430.58,625.63,434.99,627.31,439.61L627.31,439.61z"/>
	<path class="st10" d="M622.86,492.48c0.05-0.04,0.09-0.07,0.15-0.1c2.8-1.86,5-4.08,6.63-6.62c2.7-4.21,3.85-9.35,3.56-15.32
		c-0.27-5.54-1.77-11.78-4.43-18.63c-0.83-2.14-1.57-4.33-2.3-6.51c-0.43-1.28-0.87-2.56-1.32-3.83c-0.22-0.25-0.34-0.58-0.33-0.92
		c-3.9-10.65-9.44-20-28.02-20s-24.12,9.35-28.02,20c0.01,0.34-0.11,0.67-0.33,0.92c-0.45,1.27-0.88,2.55-1.32,3.83
		c-0.74,2.18-1.48,4.36-2.31,6.51c-2.65,6.85-4.16,13.09-4.43,18.63c-0.29,5.96,0.86,11.11,3.56,15.32c2.02,3.15,4.92,5.8,8.74,7.9
		c0.14,0.05,0.27,0.12,0.39,0.21c1.18,0.63,2.45,1.21,3.81,1.73c0.34,0.13,0.69,0.26,1.04,0.39c0.14,0.03,0.29,0.07,0.42,0.15
		c5.03,1.73,11.16,2.81,18.43,3.16c7.34-0.36,13.51-1.45,18.57-3.21c0.08-0.03,0.15-0.06,0.23-0.08c0.37-0.13,0.74-0.27,1.11-0.41
		C619,494.72,621.06,493.67,622.86,492.48L622.86,492.48z"/>
	<path class="st9" d="M612.51,423.93c-3.87-2.11-8.92-3.36-15.72-3.36s-11.85,1.25-15.72,3.36c-3.8,3.08-5.87,7.42-7.57,12.05
		c0.01,0.28-0.09,0.55-0.27,0.76c-0.38,1.05-0.74,2.12-1.1,3.18c-0.61,1.81-1.23,3.63-1.92,5.41c-2.21,5.69-3.46,10.88-3.68,15.48
		c-0.24,4.96,0.72,9.23,2.96,12.73c1.68,2.62,4.09,4.82,7.27,6.56c0.12,0.04,0.22,0.1,0.32,0.17c0.98,0.52,2.04,1,3.16,1.44
		c0.28,0.11,0.58,0.22,0.87,0.32c0.12,0.02,0.24,0.06,0.35,0.12c4.18,1.44,9.27,2.33,15.32,2.63c6.1-0.3,11.23-1.2,15.43-2.67
		c0.06-0.03,0.13-0.05,0.19-0.07c0.31-0.11,0.62-0.22,0.92-0.34c1.19-0.46,2.3-0.97,3.33-1.52l0.03-0.01l0.02-0.01
		c3.24-1.76,5.68-3.98,7.38-6.63c2.24-3.5,3.2-7.77,2.96-12.73c-0.22-4.6-1.47-9.79-3.68-15.48c-0.69-1.78-1.3-3.6-1.92-5.41
		c-0.36-1.07-0.72-2.13-1.1-3.18c-0.18-0.21-0.28-0.48-0.28-0.76C618.38,431.35,616.31,427.01,612.51,423.93L612.51,423.93z"/>
	<path class="st10" d="M572.97,426.97c-0.46-0.52-1.02-1.02-1.65-1.49c-0.94-0.7-2.03-1.32-3.26-1.85c-3.1,5.17-12,4.7-18.61,11.32
		c-7.53,7.53-25.26,59.54-44.49,68.07c-9.16,4.06-15.12,4.75-18.87,4.35c-1.91,2.07-2.88,3.78-3.09,5.14
		c-0.19,1.24,0.46,2.16,1.74,2.79c1.64,0.81,4.17,1.2,7.27,1.19c11.57-0.04,30.3-5.6,41.49-14.94c16.62-13.87,20.13-29.33,23-41.99
		c0.96-4.24,1.86-8.18,3.14-11.7l0,0c0.88-2.4,1.91-4.19,3.04-5.52c1.13-1.33,2.35-2.2,3.59-2.73
		C567.96,434.99,569.92,430.58,572.97,426.97L572.97,426.97z"/>
	<path class="st10" d="M620.61,426.97c0.46-0.52,1.02-1.02,1.65-1.49c0.94-0.7,2.04-1.32,3.26-1.85c3.1,5.17,12,4.7,18.61,11.32
		c7.53,7.53,25.26,59.54,44.49,68.07c9.15,4.06,15.13,4.75,18.87,4.35c1.9,2.07,2.88,3.78,3.09,5.14c0.19,1.24-0.46,2.16-1.74,2.79
		c-1.64,0.81-4.17,1.2-7.27,1.19c-11.57-0.04-30.3-5.6-41.49-14.94c-16.62-13.87-20.13-29.33-23-41.99
		c-0.96-4.24-1.86-8.18-3.14-11.7l0,0c-0.87-2.4-1.92-4.19-3.04-5.52c-1.13-1.33-2.35-2.2-3.59-2.73
		C625.63,434.99,623.67,430.58,620.61,426.97L620.61,426.97z"/>
	<path class="st9" d="M651.83,559.51c-1.47,0.88-3.11,1.48-4.81,1.83c-1.77,0.37-3.62,0.46-5.44,0.3c0.07,0.65,0.13,1.29,0.18,1.93
		c1.09,13.54-1.56,22.78-6.88,29.03c14.42,0.36,22.84-4.94,26.76-11.48c1.9-3.17,2.75-6.63,2.71-9.86
		c-0.04-3.18-0.94-6.13-2.54-8.33C659.66,559.99,656.19,558.4,651.83,559.51L651.83,559.51z"/>
	<path class="st10" d="M641.78,563.9c0.26-0.6-1.46-2.61-1.14-3.1c0.75-1.15,3.66-0.53,4.66-1.14c2.48,5.31,1.63,19.36,9.91,18.15
		c9.19-1.34,7.29-13.77,7.28-13.8c0.75,1.32,1.29,2.85,1.58,4.49c0.53,2.96,0.27,6.29-0.94,9.49c-1.21,3.22-3.38,6.33-6.66,8.84
		c-4.73,3.62-11.77,6.01-21.61,5.76C640.16,586.41,642.8,577.27,641.78,563.9L641.78,563.9z"/>
	<path class="st9" d="M516.23,553.91c0.26,0.09,0.53,0.17,0.79,0.25c0.96,0.27,2,0.45,3.12,0.53c6.7,0.5,13.03-0.27,18.86-2.05
		c6.11-1.86,11.68-4.82,16.53-8.55c1.95-6.94,4.46-13.72,7.11-19.97c4.7-11.08,9.83-20.48,13.11-26.1
		c-1.14-0.45-2.22-0.93-3.24-1.44c-2.41,2.48-4.72,5.62-7.17,8.93c-9.24,12.5-20.28,27.4-45.64,22.51c0.27,0.36,0.53,0.73,0.77,1.13
		c1.23,2.03,2.02,4.56,2.31,7.25c0.29,2.66,0.09,5.5-0.65,8.21C521.13,548.2,519.22,551.54,516.23,553.91L516.23,553.91z"/>
	<path class="st10" d="M515.19,526.17c0.12,0.18,0.24,0.37,0.36,0.56c1.23,2.03,2.02,4.56,2.31,7.25c0.29,2.66,0.09,5.5-0.65,8.21
		c-1.07,3.93-0.34,9.99-3.83,12.37c0.4,0.06,6.33,0.1,6.75,0.14c6.7,0.5,13.04-0.28,18.88-2.06c6.11-1.86,11.67-4.81,16.51-8.54
		c1.95-6.94,4.46-13.72,7.11-19.98c4.7-11.08,9.83-20.48,13.11-26.1c-1.14-0.45-2.22-0.93-3.24-1.44c-2.4,2.48-4.71,5.6-7.15,8.89
		c-0.56,0.76-1.13,1.53-1.71,2.3c-4.18,9.79-7.72,21.02-11.08,26.31c-5.52,8.7-21.07,15.05-21.41,8.7
		c-0.23-4.3-2.54-10.42-4.01-13.92C526,528.82,516.39,526.3,515.19,526.17L515.19,526.17z"/>
	<path class="st9" d="M468.2,592.6c9.84,0.25,16.88-2.14,21.61-5.76c3.28-2.51,5.44-5.62,6.66-8.84c1.21-3.21,1.47-6.53,0.94-9.49
		c-0.62-3.44-2.29-6.37-4.78-7.99c-0.31-0.2-0.86-0.48-1.6-0.78c-1.87-0.75-4.78-1.56-7.7-1.42c-2.76,0.13-5.54,1.14-7.36,3.93
		c-0.32,0.49-0.61,1.03-0.87,1.63C476.12,577.27,473.48,586.41,468.2,592.6L468.2,592.6z"/>
	<path class="st10" d="M438.94,593.06c-2.49-2.84-5.73-4.77-8.83-4.77c-3.11,0-6.34,1.93-8.83,4.77c-2.54,2.89-4.26,6.7-4.26,10.36
		c0,3.41,1.32,6.08,3.46,7.92c2.38,2.05,5.8,3.13,9.63,3.13s7.24-1.08,9.63-3.13c2.14-1.84,3.46-4.51,3.46-7.92
		C443.2,599.75,441.48,595.95,438.94,593.06L438.94,593.06z"/>
	<path class="st9" d="M471.41,544.1c4.85,3.72,10.41,6.68,16.51,8.54c5.83,1.78,12.17,2.56,18.88,2.06
		c7.21-0.53,11.25-5.32,12.74-10.78c0.65-2.38,0.82-4.88,0.57-7.23c-0.25-2.32-0.91-4.46-1.93-6.15c-1.58-2.61-4.09-4.11-7.31-3.32
		c-28,6.94-39.61-8.71-49.27-21.74c-2.44-3.3-4.76-6.42-7.17-8.9c-1.02,0.52-2.1,1-3.24,1.44c3.28,5.62,8.42,15.02,13.12,26.11
		C466.96,530.37,469.46,537.16,471.41,544.1L471.41,544.1z"/>
	<path class="st9" d="M385.16,563.9c-0.26-0.6-0.55-1.15-0.87-1.63c-1.82-2.79-4.6-3.8-7.36-3.93c-2.91-0.14-5.82,0.66-7.7,1.42
		c-0.74,0.3-1.29,0.58-1.6,0.78c-2.49,1.62-4.17,4.55-4.78,7.99c-0.53,2.96-0.27,6.29,0.94,9.49c1.21,3.22,3.38,6.33,6.66,8.84
		c4.73,3.62,11.77,6.01,21.61,5.76C386.78,586.41,384.14,577.27,385.16,563.9L385.16,563.9z"/>
	<path class="st10" d="M406.01,493.67c0.14,0.05,0.27,0.12,0.39,0.21c1.18,0.63,2.45,1.21,3.81,1.73c0.34,0.13,0.69,0.26,1.05,0.39
		c0.14,0.03,0.29,0.07,0.42,0.15c5.03,1.73,11.16,2.81,18.44,3.16c7.34-0.36,13.51-1.45,18.57-3.21c0.07-0.03,0.15-0.06,0.23-0.08
		c0.38-0.13,0.74-0.27,1.11-0.41c1.43-0.55,2.76-1.17,4-1.83l0.03-0.02l0.03-0.02c3.89-2.11,6.84-4.79,8.88-7.97
		c2.7-4.21,3.85-9.35,3.56-15.32c-0.27-5.54-1.77-11.78-4.43-18.63c-0.83-2.14-1.57-4.33-2.3-6.51c-0.43-1.28-0.87-2.56-1.32-3.83
		c-0.22-0.25-0.34-0.58-0.33-0.92c-3.9-10.65-9.44-20-28.02-20c-18.58,0-24.12,9.35-28.03,20c0.01,0.34-0.11,0.67-0.33,0.92
		c-0.45,1.27-0.89,2.55-1.32,3.83c-0.74,2.18-1.47,4.36-2.31,6.51c-2.65,6.85-4.16,13.09-4.42,18.63
		c-0.29,5.96,0.86,11.11,3.56,15.32C399.28,488.92,402.18,491.57,406.01,493.67L406.01,493.67z"/>
	<path class="st9" d="M445.83,423.93c-3.86-2.11-8.92-3.36-15.72-3.36c-6.8,0-11.85,1.25-15.72,3.36c-3.8,3.08-5.87,7.42-7.57,12.05
		c0.01,0.28-0.09,0.55-0.27,0.76c-0.38,1.05-0.74,2.12-1.1,3.18c-0.61,1.81-1.23,3.63-1.92,5.41c-2.21,5.69-3.46,10.88-3.68,15.48
		c-0.24,4.96,0.72,9.23,2.96,12.73c1.68,2.62,4.09,4.82,7.27,6.56c0.12,0.04,0.23,0.1,0.32,0.17c0.98,0.52,2.04,1,3.16,1.44
		c0.29,0.11,0.58,0.22,0.87,0.32c0.12,0.02,0.24,0.06,0.35,0.12c4.18,1.44,9.27,2.33,15.32,2.63c6.1-0.3,11.23-1.2,15.43-2.67
		c0.06-0.03,0.13-0.05,0.19-0.07c0.31-0.11,0.62-0.22,0.92-0.34c1.19-0.46,2.29-0.97,3.32-1.52l0.02-0.01l0.02-0.01
		c3.24-1.76,5.68-3.98,7.38-6.63c2.24-3.5,3.2-7.77,2.96-12.73c-0.22-4.6-1.47-9.79-3.68-15.48c-0.69-1.78-1.3-3.6-1.92-5.41
		c-0.36-1.07-0.72-2.13-1.1-3.18c-0.18-0.21-0.28-0.48-0.27-0.76C451.7,431.35,449.63,427.01,445.83,423.93L445.83,423.93z"/>
	<path class="st9" d="M391.38,544.95c-0.01,0.18-0.06,0.35-0.14,0.51c-1.68,6.1-2.91,12.3-3.39,18.33
		c-1.03,12.89,1.43,21.55,6.4,27.26c4.73,5.43,11.81,8.28,20.35,9.63c0.63-3.41,2.35-6.73,4.67-9.37c2.97-3.39,6.93-5.69,10.84-5.69
		c3.91,0,7.87,2.3,10.84,5.69c2.32,2.64,4.05,5.97,4.67,9.38c8.56-1.34,15.65-4.19,20.39-9.63c4.97-5.71,7.43-14.36,6.4-27.26
		c-0.48-6.04-1.71-12.24-3.39-18.33c-0.08-0.16-0.13-0.33-0.14-0.51c-1.92-6.87-4.4-13.59-7.03-19.79
		c-4.75-11.21-9.99-20.72-13.22-26.23c-5.13,1.67-11.26,2.7-18.45,3.05l-0.14,0c-7.18-0.35-13.3-1.38-18.43-3.04
		c-3.23,5.51-8.46,15.01-13.21,26.22C395.78,531.35,393.3,538.08,391.38,544.95L391.38,544.95z"/>
	<path class="st9" d="M490.92,502.95c-4.69,3.8-7.1,6.76-7.77,8.95c-0.35,1.13-0.15,2,0.48,2.63c0.78,0.78,2.18,1.33,4.05,1.64
		c5.13,0.87,13.23-0.08,21.68-2.56c-6.51-2.56-12.78-5.94-17.66-10.02C491.43,503.38,491.17,503.17,490.92,502.95L490.92,502.95z"/>
	<path class="st9" d="M512.56,479.51c-0.17-0.15-0.3-0.33-0.37-0.53c-6.93-9.84-11.02-19.49-14.67-28.08
		c-3.02-7.13-5.74-13.53-9.5-18.6c-1.98-2.67-4.2-4.75-6.54-6.33c-4.63-3.13-9.73-4.28-14.38-4.13c-4.62,0.15-8.76,1.59-11.52,3.63
		c-0.63,0.47-1.19,0.97-1.65,1.49c3.06,3.62,5.02,8.02,6.7,12.64c1.24,0.53,2.46,1.39,3.59,2.73c1.13,1.33,2.17,3.13,3.04,5.52v0
		c1.29,3.51,2.18,7.45,3.14,11.69c2.87,12.66,6.38,28.12,23,41.99c5.47,4.57,12.75,8.23,20.11,10.79c0.35-0.02,0.68,0.1,0.94,0.32
		c7.38,2.47,14.77,3.81,20.44,3.83c3.1,0.01,5.62-0.37,7.27-1.19c1.27-0.63,1.93-1.56,1.74-2.79c-0.38-2.49-3.33-6.12-9.83-11.07
		C524.63,494.27,517.79,486.84,512.56,479.51L512.56,479.51z"/>
	<path class="st10" d="M605.62,593.06c-2.49-2.84-5.72-4.77-8.83-4.77s-6.34,1.93-8.83,4.77c-2.54,2.89-4.26,6.7-4.26,10.36
		c0,3.41,1.32,6.08,3.46,7.92c2.38,2.05,5.8,3.13,9.63,3.13s7.24-1.08,9.63-3.13c2.15-1.84,3.46-4.51,3.46-7.92
		C609.88,599.75,608.16,595.95,605.62,593.06L605.62,593.06z"/>
	<path class="st9" d="M551.84,563.9c-0.26-0.6-0.55-1.15-0.87-1.63c-1.82-2.79-4.6-3.8-7.36-3.93c-2.91-0.14-5.82,0.66-7.69,1.42
		c-0.74,0.3-1.29,0.58-1.6,0.78c-2.49,1.62-4.17,4.55-4.78,7.99c-0.53,2.96-0.27,6.29,0.94,9.49c1.21,3.22,3.38,6.33,6.66,8.84
		c4.73,3.62,11.77,6.01,21.61,5.76C553.46,586.41,550.83,577.27,551.84,563.9L551.84,563.9z"/>
	<path class="st9" d="M641.25,558.93c1.75,0.21,3.54,0.15,5.24-0.2c1.4-0.29,2.73-0.77,3.92-1.47c0.1-0.08,0.21-0.15,0.32-0.2
		c0.55-0.35,1.07-0.74,1.55-1.18c1.57-1.46,2.73-3.46,3.21-6.07c0.38-2.06,0.33-4.49-0.25-7.33c-1.76-8.52-6.11-17.89-11.88-26.43
		c-5.6-8.29-12.53-15.77-19.72-20.88c-1.73,1.07-3.65,2.03-5.77,2.86c3.28,5.62,8.42,15.02,13.12,26.11
		C635.52,534.8,639.63,547.03,641.25,558.93L641.25,558.93z"/>
	<path class="st10" d="M641.25,558.93c1.75,0.21,3.54,0.15,5.24-0.2c1.4-0.29,2.73-0.77,3.92-1.47c0.1-0.08,0.21-0.15,0.32-0.2
		c0.55-0.35,1.07-0.74,1.55-1.18c1.57-1.46,2.73-3.46,3.21-6.07c0.22-1.21,0.3-2.56,0.2-4.05c-3.36,4.28-8.32,4.97-11-1.59
		c-3.34-8.2-14.05-27.77-17.06-36.96c-1.27-3.86-0.91-6.84-0.07-9c-1.3-1.09-2.61-2.11-3.93-3.05c-1.73,1.07-3.65,2.03-5.77,2.86
		c3.28,5.62,8.42,15.02,13.12,26.11C635.52,534.8,639.63,547.03,641.25,558.93L641.25,558.93z"/>
	<path class="st9" d="M638.8,560.79c-0.17-0.27-0.25-0.61-0.19-0.96c0.01-0.06,0.03-0.12,0.04-0.18
		c-1.55-11.76-5.63-23.9-10.12-34.51c-4.75-11.21-9.99-20.72-13.22-26.23c-5.13,1.67-11.26,2.7-18.44,3.05l-0.14,0
		c-7.18-0.35-13.3-1.38-18.43-3.04c-3.23,5.51-8.46,15.01-13.21,26.22c-2.63,6.2-5.11,12.92-7.03,19.79
		c-0.01,0.18-0.06,0.35-0.14,0.51c-1.68,6.1-2.91,12.3-3.39,18.33c-1.03,12.89,1.43,21.55,6.4,27.26
		c4.73,5.43,11.81,8.28,20.35,9.63c0.63-3.41,2.35-6.73,4.67-9.37c2.97-3.39,6.93-5.69,10.84-5.69c3.91,0,7.87,2.3,10.84,5.69
		c2.32,2.64,4.04,5.97,4.67,9.38c8.56-1.34,15.65-4.19,20.39-9.63c4.97-5.71,7.43-14.36,6.4-27.26
		C639.01,562.79,638.91,561.8,638.8,560.79L638.8,560.79z"/>
	<path class="st9" d="M406.29,426.97c-0.46-0.52-1.02-1.02-1.65-1.49c-2.76-2.05-6.9-3.48-11.52-3.63c-4.64-0.15-9.74,1-14.38,4.13
		c-2.34,1.58-4.56,3.66-6.54,6.33c-3.77,5.07-6.48,11.47-9.5,18.6c-6.43,15.16-14.24,33.58-36.55,50.54
		c-6.51,4.95-9.45,8.58-9.83,11.07c-0.19,1.24,0.46,2.16,1.74,2.79c1.64,0.81,4.17,1.2,7.27,1.19c11.57-0.04,30.3-5.6,41.49-14.94
		c16.62-13.87,20.13-29.33,23-41.99c0.96-4.24,1.86-8.18,3.14-11.7l0,0c0.87-2.4,1.91-4.19,3.04-5.52c1.13-1.33,2.35-2.2,3.59-2.73
		C401.27,434.99,403.23,430.58,406.29,426.97L406.29,426.97z"/>
	<path class="st10" d="M406.29,426.97c-0.46-0.52-1.02-1.02-1.65-1.49c-0.94-0.7-2.03-1.32-3.26-1.85c-3.1,5.17-12,4.7-18.61,11.32
		c-7.53,7.53-25.25,59.54-44.49,68.07c-9.16,4.06-15.12,4.75-18.87,4.35c-1.91,2.07-2.88,3.78-3.09,5.14
		c-0.19,1.24,0.46,2.16,1.74,2.79c1.64,0.81,4.17,1.2,7.27,1.19c11.57-0.04,30.3-5.6,41.49-14.94c16.62-13.87,20.13-29.33,23-41.99
		c0.96-4.24,1.86-8.18,3.14-11.7l0,0c0.87-2.4,1.91-4.19,3.04-5.52c1.13-1.33,2.35-2.2,3.59-2.73
		C401.27,434.99,403.23,430.58,406.29,426.97L406.29,426.97z"/>
	<path class="st10" d="M385.3,563.9c-0.26-0.6-0.55-1.15-0.87-1.63c-0.75-1.15-1.66-1.99-2.66-2.6c-2.48,5.31-1.63,19.36-9.91,18.16
		c-9.19-1.34-7.29-13.77-7.28-13.8c-0.75,1.32-1.29,2.85-1.58,4.49c-0.53,2.96-0.27,6.29,0.94,9.49c1.21,3.22,3.38,6.33,6.66,8.84
		c4.73,3.62,11.77,6.01,21.61,5.76C386.92,586.41,384.28,577.27,385.3,563.9L385.3,563.9z"/>
	<path class="st10" d="M391.52,544.94c-0.01,0.18-0.06,0.36-0.14,0.52c-1.68,6.12-2.91,12.32-3.39,18.33
		c-1.03,12.89,1.43,21.55,6.4,27.26c4.73,5.43,11.81,8.28,20.35,9.63c0.5-2.75,1.73-5.44,3.39-7.77c-47.49-3.94-6.25-94.5-6.25-94.5
		C404.28,511.42,395.71,529.91,391.52,544.94L391.52,544.94z M442.36,592.91c1.67,2.33,2.89,5.02,3.4,7.77
		c8.56-1.34,15.65-4.19,20.39-9.63c4.97-5.71,7.43-14.36,6.4-27.26c-0.48-6.04-1.71-12.24-3.39-18.34
		c-0.08-0.16-0.13-0.33-0.14-0.51c-1.92-6.87-4.4-13.59-7.03-19.79c-4.61-10.88-9.68-20.16-12.93-25.73
		C453.41,509.36,486.9,589.22,442.36,592.91L442.36,592.91z"/>
	<path class="st10" d="M475.24,563.9c0.26-0.6,0.55-1.15,0.87-1.63c0.75-1.15,1.66-1.99,2.66-2.6c2.48,5.31,1.63,19.36,9.91,18.16
		c9.19-1.34,7.29-13.77,7.28-13.8c0.75,1.32,1.29,2.85,1.58,4.49c0.53,2.96,0.27,6.29-0.94,9.49c-1.21,3.22-3.38,6.33-6.66,8.84
		c-4.73,3.62-11.77,6.01-21.61,5.76C473.62,586.41,476.26,577.27,475.24,563.9L475.24,563.9z"/>
	<path class="st9" d="M436.74,592.58c-1.83-2.09-4.21-3.51-6.49-3.51c-2.29,0-4.67,1.42-6.5,3.51c-1.87,2.13-3.13,4.93-3.13,7.62
		c0,2.51,0.97,4.47,2.55,5.83c1.75,1.5,4.27,2.3,7.08,2.3c2.81,0,5.33-0.79,7.08-2.3c1.58-1.36,2.55-3.32,2.55-5.83
		C439.88,597.51,438.61,594.71,436.74,592.58L436.74,592.58z"/>
	<path class="st10" d="M551.84,563.9c-0.26-0.6-0.55-1.15-0.87-1.63c-0.75-1.15-1.66-1.99-2.66-2.6
		c-2.48,5.31-1.63,19.36-9.91,18.15c-9.19-1.34-7.29-13.77-7.28-13.8c-0.75,1.32-1.29,2.85-1.58,4.49
		c-0.53,2.96-0.27,6.29,0.94,9.49c1.21,3.22,3.38,6.33,6.66,8.84c4.73,3.62,11.77,6.01,21.61,5.76
		C553.46,586.41,550.83,577.27,551.84,563.9L551.84,563.9z"/>
	<path class="st10" d="M558.06,544.94c-0.01,0.18-0.06,0.36-0.14,0.52c-1.68,6.12-2.91,12.32-3.39,18.33
		c-1.03,12.89,1.43,21.55,6.4,27.26c4.73,5.43,11.81,8.28,20.35,9.63c0.5-2.75,1.73-5.44,3.39-7.77c-47.49-3.94-6.25-94.5-6.25-94.5
		C570.82,511.41,562.25,529.91,558.06,544.94L558.06,544.94z M608.91,592.91c1.67,2.33,2.89,5.02,3.39,7.77
		c8.56-1.34,15.65-4.19,20.39-9.63c4.97-5.71,7.44-14.36,6.4-27.26c-0.48-6.04-1.71-12.24-3.39-18.33
		c-0.08-0.16-0.13-0.33-0.14-0.51c-1.92-6.87-4.4-13.59-7.03-19.79c-4.61-10.88-9.68-20.16-12.93-25.73
		C619.95,509.35,653.44,589.21,608.91,592.91L608.91,592.91z"/>
	<path class="st9" d="M603.29,592.58c-1.83-2.09-4.21-3.51-6.49-3.51s-4.67,1.42-6.5,3.51c-1.87,2.13-3.13,4.93-3.13,7.62
		c0,2.51,0.97,4.47,2.55,5.83c1.75,1.5,4.27,2.3,7.08,2.3s5.33-0.79,7.08-2.3c1.58-1.36,2.55-3.32,2.55-5.83
		C606.42,597.51,605.15,594.71,603.29,592.58L603.29,592.58z"/>
	<path class="st10" d="M454.56,496.7c-0.4,0.19-0.81,0.39-1.22,0.57c-0.66,0.3-1.35,0.58-2.08,0.85
		c3.28,5.63,8.38,14.98,13.05,25.99c2.65,6.25,5.16,13.04,7.11,19.98c4.85,3.72,10.41,6.68,16.51,8.54
		c5.83,1.78,12.17,2.56,18.88,2.06c7.21-0.53,11.25-5.32,12.74-10.78c0.65-2.38,0.82-4.88,0.57-7.23c-0.06-0.6-0.16-1.19-0.28-1.76
		v0c-0.58,13.38-22.67,13.21-36.22,7.53c-9.34-3.92-15.66-21.6-18.85-32.75c-1.09-1.42-2.14-2.83-3.17-4.22
		C459.2,502.23,456.92,499.16,454.56,496.7L454.56,496.7z"/>
	<path class="st10" d="M453.93,426.97c0.47-0.52,1.02-1.02,1.65-1.49c0.94-0.7,2.03-1.32,3.25-1.85c3.1,5.17,12,4.7,18.61,11.32
		c7.53,7.53,25.26,59.54,44.49,68.07c9.15,4.06,15.12,4.75,18.87,4.35c1.91,2.07,2.88,3.78,3.09,5.14c0.19,1.24-0.46,2.16-1.74,2.79
		c-1.64,0.81-4.17,1.2-7.27,1.19c-11.57-0.04-30.3-5.6-41.49-14.94c-16.62-13.87-20.13-29.33-23-41.99
		c-0.96-4.24-1.86-8.18-3.14-11.7l0,0c-0.88-2.4-1.92-4.19-3.04-5.52c-1.13-1.33-2.35-2.2-3.59-2.73
		C458.94,434.99,456.98,430.58,453.93,426.97L453.93,426.97z"/>
	<path class="st13" d="M406.29,426.97c-0.46-0.52-1.02-1.02-1.65-1.49c-2.76-2.05-6.9-3.48-11.52-3.63c-4.64-0.15-9.74,1-14.38,4.13
		c-2.33,1.58-4.55,3.66-6.54,6.33c-3.77,5.07-6.48,11.47-9.5,18.6c-6.43,15.16-14.24,33.58-36.55,50.54
		c-6.51,4.95-9.45,8.58-9.83,11.07c-0.19,1.24,0.46,2.16,1.74,2.79c1.64,0.81,4.17,1.2,7.27,1.19c11.57-0.04,30.3-5.6,41.49-14.94
		c16.62-13.87,20.13-29.33,23-41.99c0.96-4.24,1.86-8.18,3.14-11.69l0,0c0.87-2.4,1.91-4.19,3.04-5.52c1.13-1.33,2.35-2.2,3.59-2.73
		C401.27,434.99,403.23,430.58,406.29,426.97L406.29,426.97z M236.09,431.23l-0.01,0.04c-0.2,0.56-0.74,0.9-1.3,0.88
		c-4.86,3.58-9,8.47-11.52,14.83c6.25-2.47,12.8-2.48,17.46-0.82c0.7,0.25,1.06,1.01,0.81,1.71c-0.25,0.69-1.01,1.06-1.71,0.81
		c-4.76-1.7-11.81-1.41-18.16,1.97c-5,2.66-9.55,7.25-12.19,14.3c-4.01,10.71-5.26,20.26-6.49,29.68c-0.6,4.62-1.2,9.2-2.11,13.89
		c0.16,0.45,0.06,0.97-0.27,1.33c-2.33,11.31-6.64,23.24-17.3,37.54c-1.63,2.19-2.94,4.15-3.94,5.88c-1.04,1.8-1.77,3.35-2.22,4.69
		c-0.69,2.05-0.71,3.49-0.2,4.4c0.54,0.95,1.82,1.41,3.61,1.45c2.12,0.04,4.85-0.51,7.95-1.55c3.54-1.19,7.49-3.01,11.51-5.31
		l0.04-0.03c25.78-16.83,23.84-41.73,22.23-62.43c-0.55-7.07-1.06-13.65-0.46-19.39c0.55-5.25,2.33-10.55,5.47-14.39
		c2.74-3.36,6.48-5.62,11.31-5.84c0.73-0.03,1.36,0.54,1.39,1.28c0.03,0.74-0.54,1.36-1.28,1.39c-3.98,0.18-7.08,2.06-9.36,4.85
		c-2.79,3.42-4.38,8.2-4.88,12.98c-0.58,5.48-0.07,11.96,0.47,18.92c1.24,15.89,2.65,34.17-7.78,49.78
		c2.65-2.61,5.02-5.37,6.94-8.22c12.64-18.67,11.7-35.17,10.93-48.68c-0.26-4.52-0.5-8.72-0.22-12.6c0.15-2.05,0.5-3.78,1-5.23
		c0.57-1.66,1.35-2.95,2.24-3.94c0.49-0.55,1.34-0.59,1.89-0.1c0.55,0.49,0.59,1.34,0.1,1.89c-0.67,0.74-1.26,1.73-1.7,3.02
		c-0.42,1.22-0.72,2.72-0.85,4.55c-0.26,3.73-0.03,7.84,0.22,12.26c0.1,1.73,0.2,3.51,0.28,5.33c7.01,3.88,15.33,5.81,23.37,6.29
		c13.02,0.78,29.84-2.7,38.09-13.75c-0.82,0.27-1.71,0.53-2.6,0.72c-0.72,0.15-1.43-0.31-1.58-1.03c-0.15-0.72,0.31-1.43,1.03-1.58
		c2.27-0.49,4.61-1.48,5.49-1.87c2.13-4.2,2.34-7.55,2.36-8.01c0-0.16,0.02-0.31,0.08-0.46c0.05-0.14,0.09-0.28,0.13-0.43
		c-0.61,0-1.29-0.16-1.99-0.41c-1.9-0.68-4.13-2.19-4.98-3.03c-0.52-0.52-0.53-1.36-0.01-1.89c0.52-0.52,1.37-0.52,1.89,0
		c0.67,0.66,2.45,1.85,4,2.41c0.4,0.15,0.76,0.24,1.04,0.25l-0.02-0.21c0-0.03,0-0.06-0.01-0.09c-0.37-1.8-1.23-3.9-2.35-6.12
		c-2.06-4.09-5.03-8.54-7.67-12.41c-0.54-0.8-1.12-1.67-1.72-2.57c-4.92-7.43-11.23-16.95-24.61-22.23
		c-0.46-0.18-0.94-0.35-1.45-0.5c-6.15-1.85-15.02-1.37-23.33,2.04C240.72,428.47,238.34,429.72,236.09,431.23L236.09,431.23z
		 M231.58,431.26c-3.77-0.86-8.05-0.93-12.36,0.24c-4.5,1.22-9.01,3.81-12.96,8.26c-4.36,4.91-7.76,11.31-11.55,18.44
		c-8.04,15.13-17.81,33.52-42.49,49.08c-7.22,4.55-10.61,8.06-11.24,10.61c-0.32,1.29,0.29,2.34,1.58,3.12
		c1.63,0.99,4.22,1.62,7.44,1.89c12.02,1.01,31.98-3.05,44.44-11.73c0.83-0.58,1.57-1.11,2.24-1.62c0.5-0.38,1-0.76,1.49-1.16
		c0.95-4.77,1.55-9.43,2.17-14.12c1.25-9.57,2.51-19.27,6.63-30.26c2.8-7.48,7.59-12.44,12.89-15.42c0.27-0.87,0.58-1.72,0.9-2.55
		C223.2,439.88,227.04,434.99,231.58,431.26L231.58,431.26z M197.29,512.43c-0.45,0.33-0.89,0.65-1.32,0.94
		c-12.96,9.02-33.7,13.25-46.18,12.2c-3.62-0.31-6.61-1.06-8.61-2.28c-2.34-1.43-3.42-3.43-2.78-6.03
		c0.78-3.2,4.54-7.28,12.41-12.24c24.06-15.17,33.65-33.22,41.55-48.07c3.86-7.27,7.33-13.79,11.92-18.96
		c4.34-4.88,9.3-7.72,14.26-9.07c5.57-1.52,11.13-1.15,15.76,0.31c2.5-1.71,5.15-3.11,7.86-4.23c8.89-3.65,18.44-4.15,25.11-2.13
		c0.57,0.17,1.13,0.36,1.66,0.57c14.17,5.59,20.74,15.51,25.86,23.25c0.57,0.87,1.13,1.71,1.7,2.54c2.68,3.94,5.71,8.47,7.85,12.71
		c1.21,2.41,2.14,4.73,2.56,6.83c0.03,0.09,0.05,0.18,0.06,0.28l0.01,0.12c0.27,1.55,0.25,2.96-0.14,4.19
		c-0.11,1.75-1.38,14.24-16.13,22.43c2.15,2.38,4.22,5.17,6.38,8.08c9.18,12.38,20.21,27.25,46.49,20.74
		c0.56-0.14,1.1-0.23,1.61-0.27c0.52-0.04,1.04-0.04,1.56,0.01c1.03-0.11,2.14-0.03,3.32,0.26c26.28,6.52,37.31-8.35,46.49-20.74
		c2.33-3.15,4.55-6.14,6.89-8.64c-3.59-2.19-6.37-4.88-8.39-8.03c-3.01-4.69-4.29-10.36-3.98-16.88c0.28-5.83,1.85-12.35,4.6-19.47
		c0.81-2.09,1.54-4.24,2.26-6.39l0.14-0.42l-0.01,0.01c-0.93,1.1-1.81,2.63-2.57,4.72c-1.23,3.36-2.11,7.21-3.05,11.36
		c-2.96,13.06-6.58,29.01-23.89,43.46c-11.65,9.72-31.16,15.51-43.21,15.55c-3.5,0.01-6.43-0.46-8.45-1.46
		c-2.39-1.18-3.6-3.03-3.2-5.6c0.48-3.13,3.74-7.36,10.87-12.78c21.74-16.53,29.4-34.59,35.7-49.45c3.09-7.29,5.87-13.83,9.82-19.15
		c2.18-2.93,4.62-5.22,7.18-6.95c5.14-3.47,10.8-4.75,15.95-4.58c5.18,0.17,9.87,1.81,13.03,4.16c0.71,0.53,1.35,1.09,1.9,1.69
		c4.57-4.33,11.29-7.13,21.98-7.13s17.4,2.8,21.98,7.13c0.55-0.59,1.19-1.16,1.9-1.69c3.16-2.34,7.85-3.98,13.03-4.16
		c5.15-0.17,10.82,1.11,15.95,4.58c2.57,1.74,5.01,4.02,7.18,6.95c3.95,5.32,6.72,11.86,9.82,19.15
		c3.42,8.06,7.24,17.06,13.48,26.25c6.24-9.18,10.06-18.19,13.48-26.25c3.09-7.29,5.86-13.83,9.82-19.15
		c2.18-2.93,4.62-5.22,7.18-6.95c5.14-3.47,10.8-4.75,15.96-4.58c5.18,0.17,9.87,1.81,13.03,4.16c0.71,0.53,1.35,1.09,1.9,1.69
		c4.57-4.33,11.29-7.13,21.98-7.13s17.41,2.8,21.98,7.13c0.55-0.59,1.19-1.16,1.9-1.69c3.16-2.34,7.85-3.98,13.03-4.16
		c5.16-0.17,10.82,1.11,15.96,4.58c2.57,1.74,5.01,4.02,7.18,6.95c3.95,5.32,6.72,11.86,9.82,19.15
		c6.3,14.86,13.96,32.93,35.7,49.45c7.13,5.42,10.39,9.65,10.87,12.78c0.39,2.57-0.81,4.41-3.2,5.6c-2.02,1-4.95,1.47-8.45,1.46
		c-12.05-0.04-31.56-5.83-43.21-15.55c-17.31-14.45-20.93-30.4-23.89-43.46c-0.94-4.15-1.82-8-3.05-11.37
		c-0.77-2.08-1.64-3.62-2.57-4.71l-0.01-0.01l0.14,0.42c0.73,2.15,1.45,4.31,2.26,6.39c2.76,7.12,4.32,13.64,4.6,19.47
		c0.31,6.52-0.97,12.19-3.98,16.88c-1.53,2.38-3.49,4.5-5.91,6.34c7.18,5.28,14.04,12.76,19.6,20.99
		c5.95,8.8,10.44,18.51,12.27,27.39c0.66,3.19,0.7,5.96,0.27,8.34c-0.46,2.5-1.44,4.56-2.78,6.22c3.64,0.22,6.59,2.07,8.63,4.88
		c1.92,2.64,2.99,6.13,3.04,9.87c0.04,3.69-0.92,7.64-3.08,11.26c-4.58,7.64-14.51,13.78-31.56,12.67
		c-5.08,4.49-11.88,6.95-19.81,8.18v0.07c0,4.25-1.67,7.61-4.4,9.95c-2.88,2.47-6.91,3.77-11.36,3.77c-4.45,0-8.48-1.3-11.36-3.77
		c-2.73-2.34-4.4-5.7-4.4-9.95v-0.08c-7.91-1.23-14.7-3.69-19.76-8.17c-11.79,0.77-20.18-1.93-25.75-6.2
		c-3.7-2.84-6.16-6.36-7.53-10.02c-1.38-3.68-1.68-7.5-1.07-10.9c0.74-4.15,2.83-7.72,5.96-9.76c0.43-0.28,1.15-0.65,2.06-1.02
		c2.13-0.86,5.45-1.77,8.81-1.61c3.09,0.15,6.21,1.18,8.55,3.91c0.49-3.79,1.24-7.62,2.17-11.42c-4.43,3-9.35,5.41-14.67,7.03
		c-6.15,1.87-12.81,2.69-19.84,2.17c-1.34-0.1-2.58-0.32-3.74-0.65c-0.97-0.28-1.88-0.63-2.73-1.05c-1.86,0.92-4.02,1.52-6.49,1.7
		c-7.03,0.52-13.69-0.3-19.84-2.17c-5.32-1.62-10.24-4.03-14.67-7.03c0.93,3.8,1.68,7.63,2.17,11.42c2.33-2.73,5.46-3.76,8.55-3.91
		c3.37-0.16,6.69,0.75,8.81,1.61c0.91,0.37,1.63,0.74,2.06,1.02c3.13,2.04,5.22,5.61,5.96,9.76c0.61,3.41,0.31,7.23-1.07,10.9
		c-1.38,3.66-3.83,7.19-7.53,10.02c-5.56,4.26-13.95,6.96-25.75,6.2c-5.08,4.49-11.87,6.95-19.8,8.18l0,0.07
		c0,4.25-1.67,7.61-4.4,9.95c-2.88,2.47-6.91,3.77-11.36,3.77c-4.45,0-8.49-1.3-11.36-3.77c-2.73-2.34-4.4-5.7-4.4-9.95v-0.08
		c-7.91-1.23-14.7-3.69-19.76-8.17c-11.79,0.77-20.18-1.93-25.75-6.2c-3.7-2.84-6.16-6.36-7.53-10.02c-1.38-3.68-1.68-7.5-1.07-10.9
		c0.74-4.15,2.83-7.72,5.96-9.76c0.43-0.28,1.15-0.65,2.05-1.02c2.13-0.86,5.45-1.77,8.81-1.61c3.09,0.15,6.21,1.18,8.55,3.91
		c0.49-3.79,1.24-7.62,2.17-11.42c-4.43,3-9.35,5.41-14.67,7.03c-6.15,1.87-12.81,2.69-19.84,2.17c-2.47-0.18-4.63-0.79-6.49-1.7
		c-0.84,0.42-1.74,0.77-2.7,1.04l0,0c-1.18,0.34-2.43,0.57-3.77,0.66c-7.03,0.52-13.69-0.3-19.84-2.17
		c-5.32-1.62-10.24-4.03-14.67-7.03c0.94,3.8,1.68,7.63,2.17,11.42c2.33-2.73,5.45-3.76,8.55-3.91c3.37-0.16,6.69,0.75,8.81,1.61
		c0.91,0.37,1.63,0.74,2.06,1.02c3.13,2.04,5.22,5.61,5.96,9.76c0.61,3.41,0.31,7.23-1.07,10.9c-1.38,3.66-3.83,7.19-7.53,10.02
		c-5.56,4.26-13.95,6.96-25.75,6.2c-5.07,4.48-11.85,6.94-19.77,8.17v0.08c0,4.25-1.67,7.61-4.4,9.95
		c-2.88,2.47-6.91,3.77-11.36,3.77c-4.45,0-8.48-1.3-11.36-3.77c-2.73-2.34-4.4-5.7-4.4-9.95v-0.07
		c-7.93-1.22-14.73-3.69-19.81-8.18c-17.06,1.11-26.99-5.03-31.57-12.67c-2.16-3.61-3.13-7.56-3.08-11.26
		c0.04-3.38,0.93-6.56,2.51-9.08c-2.23,1.05-4.38,1.93-6.41,2.62c-3.37,1.14-6.41,1.74-8.85,1.69c-2.76-0.06-4.82-0.95-5.88-2.81
		c-0.88-1.56-0.96-3.72-0.01-6.55c0.5-1.51,1.31-3.23,2.44-5.18c1.07-1.84,2.43-3.88,4.11-6.14
		C190.53,533.22,194.86,522.52,197.29,512.43L197.29,512.43z M238.08,495.44c0.08,3.51,0.01,7.18-0.37,11
		c0.44-0.84,0.88-1.64,1.3-2.42c1.41-2.58,2.66-4.78,3.69-6.54C241.12,496.87,239.57,496.2,238.08,495.44L238.08,495.44z
		 M236.24,515.24c-1.54,6.45-4.23,13.27-8.81,20.43c0.05,0.23,0.04,0.48-0.04,0.73c-1.54,4.43-2.91,9.02-4,13.66
		c-0.75,3.21-1.36,6.42-1.78,9.61c0.02,0.06,0.03,0.12,0.04,0.18c0.06,0.34-0.01,0.68-0.19,0.96c-0.12,1-0.22,2-0.3,2.99
		c-1.03,12.89,1.43,21.55,6.4,27.26c4.74,5.44,11.83,8.29,20.39,9.63c0.63-3.41,2.35-6.74,4.67-9.38c2.97-3.39,6.93-5.69,10.84-5.69
		c3.91,0,7.87,2.3,10.84,5.69c2.32,2.64,4.04,5.97,4.67,9.37c8.54-1.34,15.62-4.19,20.35-9.63c4.97-5.71,7.43-14.36,6.4-27.26
		c-0.48-6.04-1.71-12.24-3.39-18.33c-0.08-0.16-0.13-0.33-0.14-0.51c-1.92-6.87-4.4-13.59-7.03-19.79
		c-4.64-10.96-9.75-20.29-13-25.85c-5.92,1.66-13.33,2.47-20.97,2.01c-5.32-0.32-10.78-1.25-15.93-2.93
		c-1.1,1.86-2.45,4.21-3.91,6.9C239.78,508.17,238.04,511.52,236.24,515.24L236.24,515.24z M222.78,541.95
		c-4.27,4.99-9.68,9.59-15.3,13.43c0.62,0.65,1.31,1.21,2.06,1.69c0.1,0.04,0.19,0.1,0.27,0.16c0.7,0.41,1.44,0.75,2.22,1.02
		c2.18,0.75,4.61,0.96,6.96,0.68c0.43-3.15,1.03-6.32,1.77-9.48C221.36,546.94,222.04,544.44,222.78,541.95L222.78,541.95z
		 M288.21,497.06c-0.27,0.13-0.54,0.25-0.81,0.38c-0.82,0.37-1.7,0.72-2.62,1.04c3.28,5.66,8.27,14.85,12.84,25.64
		c2.65,6.25,5.16,13.04,7.11,19.98c4.85,3.72,10.41,6.68,16.51,8.54c5.83,1.78,12.17,2.56,18.88,2.06c1.17-0.09,2.24-0.28,3.22-0.56
		v0c0.23-0.07,0.46-0.14,0.68-0.22c-2.98-2.37-4.9-5.71-5.88-9.3c-0.74-2.71-0.94-5.56-0.65-8.21c0.29-2.69,1.08-5.22,2.31-7.25
		c0.24-0.4,0.51-0.79,0.79-1.15c-25.42,4.79-36.44-10.06-45.68-22.52C292.63,502.39,290.45,499.46,288.21,497.06L288.21,497.06z
		 M218.68,561.64c-2.55,0.22-5.14-0.05-7.5-0.86c-0.97-0.33-1.89-0.76-2.76-1.27c-4.35-1.1-7.81,0.49-9.96,3.44
		c-1.6,2.2-2.5,5.15-2.54,8.33c-0.04,3.23,0.81,6.69,2.71,9.86c3.92,6.54,12.34,11.84,26.76,11.48c-5.32-6.24-7.96-15.48-6.88-29.03
		C218.55,562.94,218.61,562.29,218.68,561.64L218.68,561.64z M347.28,552.87c0.13,0.05,0.25,0.11,0.35,0.2
		c1.65,0.88,3.58,1.46,5.82,1.62c6.71,0.5,13.05-0.28,18.88-2.06c6.11-1.86,11.67-4.81,16.51-8.54c1.95-6.94,4.46-13.72,7.11-19.98
		c4.7-11.08,9.83-20.48,13.11-26.1c-1.14-0.45-2.22-0.93-3.24-1.44c-2.4,2.48-4.71,5.6-7.15,8.89
		c-9.66,13.03-21.27,28.68-49.27,21.74c-3.22-0.8-5.73,0.7-7.31,3.32c-1.02,1.69-1.68,3.83-1.93,6.15
		c-0.25,2.35-0.08,4.86,0.57,7.23C341.71,547.55,343.84,550.89,347.28,552.87L347.28,552.87z M301.51,592.6
		c9.84,0.25,16.88-2.14,21.61-5.76c3.28-2.51,5.44-5.62,6.66-8.84c1.21-3.21,1.47-6.53,0.94-9.49c-0.62-3.44-2.29-6.37-4.78-7.99
		c-0.31-0.2-0.86-0.48-1.6-0.78c-1.87-0.75-4.78-1.56-7.7-1.42c-2.76,0.13-5.54,1.14-7.36,3.93c-0.32,0.49-0.61,1.03-0.87,1.63
		C309.43,577.27,306.79,586.41,301.51,592.6L301.51,592.6z M263.47,588.29c-3.11,0-6.34,1.93-8.83,4.77
		c-2.54,2.89-4.26,6.7-4.26,10.36c0,3.41,1.32,6.08,3.46,7.92c2.38,2.05,5.8,3.13,9.63,3.13c3.82,0,7.24-1.08,9.63-3.13
		c2.15-1.84,3.46-4.51,3.46-7.92c0-3.66-1.72-7.46-4.26-10.36C269.81,590.22,266.57,588.29,263.47,588.29L263.47,588.29z
		 M622.86,492.48c0.05-0.04,0.09-0.07,0.15-0.1c2.8-1.86,5-4.08,6.63-6.62c2.7-4.21,3.85-9.35,3.56-15.32
		c-0.27-5.54-1.77-11.78-4.43-18.63c-0.83-2.14-1.57-4.33-2.3-6.51c-0.43-1.28-0.87-2.56-1.32-3.83c-0.22-0.25-0.34-0.58-0.33-0.92
		c-3.9-10.65-9.44-20-28.02-20s-24.12,9.35-28.02,20c0.01,0.34-0.11,0.67-0.33,0.92c-0.45,1.27-0.88,2.55-1.32,3.83
		c-0.74,2.18-1.48,4.36-2.31,6.51c-2.65,6.85-4.16,13.09-4.43,18.63c-0.29,5.96,0.86,11.11,3.56,15.32c2.02,3.15,4.92,5.8,8.74,7.9
		c0.14,0.05,0.27,0.12,0.39,0.21c1.18,0.63,2.45,1.21,3.81,1.73c0.34,0.13,0.69,0.26,1.04,0.39c0.14,0.03,0.29,0.07,0.42,0.15
		c5.03,1.73,11.16,2.81,18.43,3.16c7.34-0.36,13.51-1.45,18.57-3.21c0.08-0.03,0.15-0.06,0.23-0.08c0.37-0.13,0.74-0.27,1.11-0.41
		C619,494.72,621.06,493.67,622.86,492.48L622.86,492.48z M651.83,559.51c-1.47,0.88-3.11,1.48-4.81,1.83
		c-1.77,0.37-3.62,0.46-5.44,0.3c0.07,0.65,0.13,1.29,0.18,1.93c1.09,13.54-1.56,22.78-6.88,29.03
		c14.42,0.36,22.84-4.94,26.76-11.48c1.9-3.17,2.75-6.63,2.71-9.86c-0.04-3.18-0.94-6.13-2.54-8.33
		C659.66,559.99,656.19,558.4,651.83,559.51L651.83,559.51z M638.8,560.79c-0.17-0.27-0.25-0.61-0.19-0.96
		c0.01-0.06,0.03-0.12,0.04-0.18c-1.55-11.76-5.63-23.9-10.12-34.51c-4.75-11.21-9.99-20.72-13.22-26.23
		c-5.13,1.67-11.26,2.7-18.44,3.05l-0.14,0c-7.18-0.35-13.3-1.38-18.43-3.04c-3.23,5.51-8.46,15.01-13.21,26.22
		c-2.63,6.2-5.11,12.92-7.03,19.79c-0.01,0.18-0.06,0.35-0.14,0.51c-1.68,6.1-2.91,12.3-3.39,18.33
		c-1.03,12.89,1.43,21.55,6.4,27.26c4.73,5.43,11.81,8.28,20.35,9.63c0.63-3.41,2.35-6.73,4.67-9.37c2.97-3.39,6.93-5.69,10.84-5.69
		c3.91,0,7.87,2.3,10.84,5.69c2.32,2.64,4.04,5.97,4.67,9.38c8.56-1.34,15.65-4.19,20.39-9.63c4.97-5.71,7.43-14.36,6.4-27.26
		C639.01,562.79,638.91,561.8,638.8,560.79L638.8,560.79z M641.25,558.93c1.75,0.21,3.54,0.15,5.24-0.2
		c1.4-0.29,2.73-0.77,3.92-1.47c0.1-0.08,0.21-0.15,0.32-0.2c0.55-0.35,1.07-0.74,1.55-1.18c1.57-1.46,2.73-3.46,3.21-6.07
		c0.38-2.06,0.33-4.49-0.25-7.33c-1.76-8.52-6.11-17.89-11.88-26.43c-5.6-8.29-12.53-15.77-19.72-20.88
		c-1.73,1.07-3.65,2.03-5.77,2.86c3.28,5.62,8.42,15.02,13.12,26.11C635.52,534.8,639.63,547.03,641.25,558.93L641.25,558.93z
		 M516.24,553.91c0.23,0.08,0.47,0.15,0.71,0.22c0.99,0.28,2.05,0.47,3.2,0.56c6.7,0.5,13.04-0.28,18.88-2.06
		c6.11-1.86,11.67-4.81,16.51-8.54c1.95-6.94,4.46-13.72,7.11-19.98c4.7-11.08,9.83-20.48,13.11-26.1
		c-1.14-0.45-2.22-0.93-3.24-1.44c-2.4,2.48-4.71,5.6-7.15,8.89c-9.24,12.46-20.25,27.31-45.68,22.52c0.28,0.36,0.54,0.75,0.79,1.15
		c1.23,2.03,2.02,4.56,2.31,7.25c0.29,2.66,0.09,5.5-0.65,8.21C521.13,548.19,519.22,551.54,516.24,553.91L516.24,553.91z
		 M513.41,527.06c-0.22,0.03-0.43,0.01-0.62-0.06c-0.61-0.02-1.25,0.04-1.92,0.21c-28,6.94-39.61-8.71-49.27-21.74
		c-2.44-3.3-4.76-6.42-7.17-8.9c-1.02,0.52-2.1,1-3.24,1.44c3.28,5.62,8.42,15.02,13.12,26.11c2.65,6.25,5.16,13.04,7.11,19.98
		c4.85,3.72,10.41,6.68,16.51,8.54c5.83,1.78,12.17,2.56,18.88,2.06c7.21-0.53,11.25-5.32,12.74-10.78
		c0.65-2.38,0.82-4.88,0.57-7.23c-0.25-2.32-0.91-4.46-1.93-6.15C517.04,528.65,515.42,527.35,513.41,527.06L513.41,527.06z
		 M513.54,524.36c0.42-0.04,0.86-0.05,1.3-0.02c0.61,0.03,1.23,0.13,1.87,0.29c26.28,6.52,37.31-8.35,46.49-20.74
		c2.33-3.15,4.55-6.14,6.89-8.64c-3.59-2.19-6.37-4.88-8.39-8.03c-3.01-4.69-4.29-10.36-3.98-16.88c0.28-5.83,1.85-12.35,4.6-19.47
		c0.81-2.09,1.54-4.24,2.26-6.39l0.14-0.42l-0.01,0.01c-0.93,1.1-1.81,2.63-2.57,4.72c-1.23,3.36-2.11,7.21-3.05,11.36
		c-2.8,12.32-6.18,27.22-21.11,41.01c5.52,4.55,8.12,8.18,8.55,10.95c0.4,2.57-0.81,4.41-3.2,5.6c-2.02,1-4.95,1.47-8.45,1.46
		c-5.94-0.02-13.69-1.44-21.42-4.04c-10.03,3.37-20.15,4.76-26.33,3.68c-2.39-0.42-4.26-1.21-5.44-2.42
		c-1.33-1.36-1.77-3.12-1.1-5.29c0.82-2.61,3.41-5.91,8.3-9.93c-14.92-13.78-18.3-28.68-21.1-41.01c-0.94-4.15-1.81-8-3.05-11.37
		c-0.77-2.08-1.64-3.62-2.57-4.71l-0.01-0.01l0.14,0.42c0.73,2.15,1.46,4.31,2.26,6.39c2.76,7.12,4.32,13.64,4.6,19.47
		c0.31,6.52-0.97,12.19-3.98,16.88c-2.01,3.14-4.79,5.83-8.36,8.02c2.34,2.5,4.56,5.5,6.9,8.65c9.18,12.38,20.21,27.25,46.49,20.74
		C511.4,524.33,512.51,524.25,513.54,524.36L513.54,524.36z M551.84,563.9c-0.26-0.6-0.55-1.15-0.87-1.63
		c-1.82-2.79-4.6-3.8-7.36-3.93c-2.91-0.14-5.82,0.66-7.69,1.42c-0.74,0.3-1.29,0.58-1.6,0.78c-2.49,1.62-4.17,4.55-4.78,7.99
		c-0.53,2.96-0.27,6.29,0.94,9.49c1.21,3.22,3.38,6.33,6.66,8.84c4.73,3.62,11.77,6.01,21.61,5.76
		C553.46,586.41,550.83,577.27,551.84,563.9L551.84,563.9z M605.62,593.06c-2.49-2.84-5.72-4.77-8.83-4.77s-6.34,1.93-8.83,4.77
		c-2.54,2.89-4.26,6.7-4.26,10.36c0,3.41,1.32,6.08,3.46,7.92c2.38,2.05,5.8,3.13,9.63,3.13s7.24-1.08,9.63-3.13
		c2.15-1.84,3.46-4.51,3.46-7.92C609.88,599.75,608.16,595.95,605.62,593.06L605.62,593.06z M627.31,439.61
		c1.24,0.53,2.46,1.39,3.59,2.73c1.13,1.33,2.17,3.13,3.04,5.52v0c1.29,3.51,2.18,7.45,3.14,11.69c2.87,12.66,6.38,28.12,23,41.99
		c11.19,9.34,29.92,14.9,41.49,14.94c3.1,0.01,5.62-0.37,7.27-1.19c1.27-0.63,1.93-1.56,1.74-2.79c-0.38-2.49-3.33-6.12-9.83-11.07
		c-22.31-16.96-30.12-35.38-36.55-50.54c-3.02-7.13-5.74-13.53-9.5-18.6c-1.98-2.67-4.2-4.75-6.54-6.33
		c-4.63-3.13-9.73-4.28-14.38-4.13c-4.62,0.15-8.76,1.59-11.52,3.63c-0.63,0.47-1.18,0.97-1.65,1.49
		C623.67,430.58,625.63,434.99,627.31,439.61L627.31,439.61z M566.27,439.61c1.68-4.62,3.64-9.03,6.7-12.64
		c-0.46-0.52-1.02-1.02-1.65-1.49c-2.76-2.05-6.9-3.48-11.52-3.63c-4.64-0.15-9.74,1-14.38,4.13c-2.34,1.58-4.56,3.66-6.54,6.33
		c-3.77,5.07-6.48,11.47-9.5,18.6c-3.58,8.44-7.59,17.89-14.3,27.55c5.07,7,11.63,14.06,20.58,20.87l0.21,0.16
		c14.58-13.31,17.89-27.88,20.62-39.92c0.96-4.24,1.86-8.18,3.14-11.69l0,0c0.88-2.4,1.91-4.19,3.04-5.52
		C563.81,441,565.04,440.14,566.27,439.61L566.27,439.61z M490.92,502.95c-4.67,3.79-7.09,6.73-7.77,8.93
		c-0.35,1.13-0.17,2,0.45,2.63c0.77,0.78,2.15,1.33,4,1.65c5.13,0.9,13.27-0.06,21.75-2.54c-6.51-2.56-12.78-5.94-17.66-10.02
		C491.43,503.38,491.17,503.17,490.92,502.95L490.92,502.95z M391.38,544.95c-0.01,0.18-0.06,0.35-0.14,0.51
		c-1.68,6.1-2.91,12.3-3.39,18.33c-1.03,12.89,1.43,21.55,6.4,27.26c4.73,5.43,11.81,8.28,20.35,9.63c0.63-3.41,2.35-6.73,4.67-9.37
		c2.97-3.39,6.93-5.69,10.84-5.69c3.91,0,7.87,2.3,10.84,5.69c2.32,2.64,4.05,5.97,4.67,9.38c8.56-1.34,15.65-4.19,20.39-9.63
		c4.97-5.71,7.43-14.36,6.4-27.26c-0.48-6.04-1.71-12.24-3.39-18.33c-0.08-0.16-0.13-0.33-0.14-0.51
		c-1.92-6.87-4.4-13.59-7.03-19.79c-4.75-11.21-9.99-20.72-13.22-26.23c-5.13,1.67-11.26,2.7-18.45,3.05l-0.14,0
		c-7.18-0.35-13.3-1.38-18.43-3.04c-3.23,5.51-8.46,15.01-13.21,26.22C395.78,531.35,393.3,538.08,391.38,544.95L391.38,544.95z
		 M406.01,493.67c0.14,0.05,0.27,0.12,0.39,0.21c1.18,0.63,2.45,1.21,3.81,1.73c0.34,0.13,0.69,0.26,1.05,0.39
		c0.14,0.03,0.29,0.07,0.42,0.15c5.03,1.73,11.16,2.81,18.44,3.16c7.34-0.36,13.51-1.45,18.57-3.21c0.07-0.03,0.15-0.06,0.23-0.08
		c0.38-0.13,0.74-0.27,1.11-0.41c1.43-0.55,2.76-1.17,4-1.83l0.03-0.02l0.03-0.02c3.89-2.11,6.84-4.79,8.88-7.97
		c2.7-4.21,3.85-9.35,3.56-15.32c-0.27-5.54-1.77-11.78-4.43-18.63c-0.83-2.14-1.57-4.33-2.3-6.51c-0.43-1.28-0.87-2.56-1.32-3.83
		c-0.22-0.25-0.34-0.58-0.33-0.92c-3.9-10.65-9.44-20-28.02-20c-18.58,0-24.12,9.35-28.03,20c0.01,0.34-0.11,0.67-0.33,0.92
		c-0.45,1.27-0.89,2.55-1.32,3.83c-0.74,2.18-1.47,4.36-2.31,6.51c-2.65,6.85-4.16,13.09-4.42,18.63
		c-0.29,5.96,0.86,11.11,3.56,15.32C399.28,488.92,402.18,491.57,406.01,493.67L406.01,493.67z M385.16,563.9
		c-0.26-0.6-0.55-1.15-0.87-1.63c-1.82-2.79-4.6-3.8-7.36-3.93c-2.91-0.14-5.82,0.66-7.7,1.42c-0.74,0.3-1.29,0.58-1.6,0.78
		c-2.49,1.62-4.17,4.55-4.78,7.99c-0.53,2.96-0.27,6.29,0.94,9.49c1.21,3.22,3.38,6.33,6.66,8.84c4.73,3.62,11.77,6.01,21.61,5.76
		C386.78,586.41,384.14,577.27,385.16,563.9L385.16,563.9z M438.94,593.06c-2.49-2.84-5.73-4.77-8.83-4.77
		c-3.11,0-6.34,1.93-8.83,4.77c-2.54,2.89-4.26,6.7-4.26,10.36c0,3.41,1.32,6.08,3.46,7.92c2.38,2.05,5.8,3.13,9.63,3.13
		s7.24-1.08,9.63-3.13c2.14-1.84,3.46-4.51,3.46-7.92C443.2,599.75,441.48,595.95,438.94,593.06L438.94,593.06z M468.2,592.6
		c9.84,0.25,16.88-2.14,21.61-5.76c3.28-2.51,5.44-5.62,6.66-8.84c1.21-3.21,1.47-6.53,0.94-9.49c-0.62-3.44-2.29-6.37-4.78-7.99
		c-0.31-0.2-0.86-0.48-1.6-0.78c-1.87-0.75-4.78-1.56-7.7-1.42c-2.76,0.13-5.54,1.14-7.36,3.93c-0.32,0.49-0.61,1.03-0.87,1.63
		C476.12,577.27,473.48,586.41,468.2,592.6L468.2,592.6z M460.63,439.61c1.24,0.53,2.46,1.39,3.59,2.73
		c1.13,1.33,2.17,3.13,3.04,5.52v0c1.29,3.51,2.18,7.45,3.14,11.69c2.87,12.66,6.38,28.12,23,41.99
		c11.19,9.34,29.92,14.9,41.49,14.94c3.1,0.01,5.62-0.37,7.27-1.19c1.27-0.63,1.93-1.56,1.74-2.79c-0.38-2.49-3.33-6.12-9.83-11.07
		c-22.31-16.96-30.12-35.38-36.55-50.54c-3.02-7.13-5.74-13.53-9.5-18.6c-1.98-2.67-4.2-4.75-6.54-6.33
		c-4.63-3.13-9.73-4.28-14.38-4.13c-4.62,0.15-8.76,1.59-11.52,3.63c-0.63,0.47-1.19,0.97-1.65,1.49
		C456.98,430.58,458.94,434.99,460.63,439.61L460.63,439.61z"/>
	<path class="st9" d="M388.84,544.1c-4.85,3.72-10.41,6.68-16.51,8.54c-5.83,1.78-12.17,2.56-18.88,2.06
		c-7.21-0.53-11.25-5.32-12.74-10.78c-0.65-2.38-0.82-4.88-0.57-7.23c0.25-2.32,0.91-4.46,1.93-6.15c1.58-2.61,4.09-4.11,7.31-3.32
		c28,6.94,39.61-8.71,49.27-21.74c2.45-3.3,4.76-6.42,7.17-8.9c1.02,0.52,2.1,1,3.24,1.44c-3.28,5.62-8.42,15.02-13.12,26.11
		C393.3,530.37,390.79,537.16,388.84,544.1L388.84,544.1z"/>
	<path class="st10" d="M405.7,496.7c0.4,0.19,0.81,0.39,1.22,0.57c0.66,0.3,1.35,0.58,2.08,0.85c-3.28,5.63-8.38,14.98-13.05,25.99
		c-2.65,6.25-5.16,13.04-7.11,19.98c-4.85,3.72-10.41,6.68-16.51,8.54c-5.83,1.78-12.17,2.56-18.88,2.06
		c-7.21-0.53-11.25-5.32-12.74-10.78c-0.65-2.38-0.82-4.88-0.57-7.23c0.06-0.6,0.16-1.19,0.27-1.76v0
		c0.58,13.38,22.67,13.21,36.22,7.53c9.34-3.92,15.66-21.6,18.85-32.75c1.09-1.42,2.14-2.83,3.17-4.22
		C401.06,502.23,403.34,499.16,405.7,496.7L405.7,496.7z"/>
</g>
</svg>
